<svg fill="none" xmlns="http://www.w3.org/2000/svg" viewBox="0 0 101 19"><path fill-rule="evenodd" clip-rule="evenodd" d="M44.92 9.04c0 5.79-4.13 9.08-11.21 9.08-7.1 0-11.21-3.27-11.21-9.08C22.5 3.24 26.6 0 33.71 0c7.08 0 11.21 3.27 11.21 9.04zm-16.22 0c0 2.26 1.12 4.07 5.01 4.07 3.89 0 5-1.83 5-4.07 0-2.22-1.09-4.03-5-4.03s-5 1.78-5 4.03zM7.92.48h12.19v8.8c0 5.79-2.93 8.84-10.02 8.84C3.22 18.12.08 15.09.08 9.27h5.96c0 1.8.64 3.84 4.05 3.84 3.41 0 4.06-2.07 4.06-3.84V5.48H7.92v-5zm67.35 0h-9.3L61.28 10.7 56.6.48h-9.3v17.16h5.96V6.2l5.25 11.44h5.54L69.3 6.2v11.44h5.97V.48zm24.8 8.56c0 5.79-4.12 9.08-11.2 9.08-7.11 0-11.21-3.27-11.21-9.08 0-5.8 4.1-9.04 11.2-9.04 7.09 0 11.22 3.27 11.22 9.04zm-7.02 1.87c-.47.95-1.56 1.76-4.16 1.76s-3.7-.8-4.16-1.76l-1.22.6c.78 1.61 2.5 2.53 5.38 2.53s4.6-.93 5.38-2.53l-1.22-.6z" fill="currentColor"/></svg>