<svg fill="none" xmlns="http://www.w3.org/2000/svg" viewBox="0 0 1194 716"><path d="M61.75 64.95c2.15-2.44 6.08-4.87 11.82-7.24 5.72-2.35 13.13-4.6 22.14-6.73 18-4.25 42.3-8 71.96-11.17C227 33.46 307.76 29.45 402.64 28.32c189.75-2.25 435.93 7.07 680.05 32.41 25.75 2.68 47.84 19.13 53.89 44.16 17.92 74.12 31.75 205.65 32.62 322.93.43 58.64-2.38 113.67-9.53 156.15-3.58 21.25-8.23 39.31-14.09 53.1-5.86 13.84-12.87 23.21-21.03 27.32-4.58 2.3-12.51 4.47-23.47 6.46-10.93 1.99-24.78 3.8-41.14 5.42-32.71 3.26-75.4 5.81-124.72 7.73-98.62 3.82-223.66 5.09-348.22 4.35-124.55-.74-248.6-3.48-345.23-7.68-48.3-2.1-89.76-4.55-120.98-7.3a666.48 666.48 0 0 1-38.72-4.34c-10.1-1.52-17.09-3.09-20.67-4.66-3.44-1.51-6.7-4.92-9.76-10.18-3.05-5.25-5.82-12.24-8.33-20.77-5-17.04-8.89-40.06-11.76-67.15-5.76-54.15-7.46-124.38-6.12-195.16 1.35-70.78 5.74-142.07 12.16-198.35 3.21-28.14 6.93-52.5 11.03-71.17 2.05-9.33 4.2-17.21 6.4-23.42 2.22-6.24 4.48-10.69 6.73-13.22Z" stroke="#000" stroke-width="2"/><path d="M49 99.28c248.5-34.5 610.4-31.1 1090 18.5M96 73.78a8.5 8.5 0 0 1-17 0c0-2.24 1.17-4.1 2.86-5.43a9.63 9.63 0 0 1 5.64-2.07c2.2 0 4.34 1 5.94 2.49 1.61 1.5 2.56 3.37 2.56 5.01ZM125 69.78a8.5 8.5 0 0 1-17 0c0-2.24 1.17-4.1 2.86-5.43a9.63 9.63 0 0 1 5.64-2.07c2.2 0 4.34 1 5.94 2.49 1.62 1.5 2.56 3.37 2.56 5.01ZM155 65.78a8.5 8.5 0 0 1-17 0c0-2.24 1.16-4.1 2.86-5.43a9.63 9.63 0 0 1 5.64-2.07c2.2 0 4.34 1 5.94 2.49 1.62 1.5 2.56 3.37 2.56 5.01ZM993.79 138.25c-40.3-7.59-123.24-14.06-161.12-14.53-10.2-.12-18.3 8.02-19.19 18.17l-.1 1.17c-.8 9.98 8.89 16.36 18.89 16.9 34.12 1.8 110.78 8.84 156.7 12.56 6.15.5 12.44-1.56 15.98-6.62 6.36-9.11 5.14-16.07-2.57-23.46a16.79 16.79 0 0 0-8.6-4.2Z" stroke="#000" stroke-width="2"/><path d="m844.3 144.28 5.7 7m-9.61-16.94c-4.27-.74-7.98 5.87-5.7 9.58 2.36 3.83 10.27 2.15 11.04-2.21.7-4.06-1.07-6.63-5.34-7.37ZM333.5 80.28c-22.5 149-21.6 414.2 0 601M768 87.28c9.52 149 9.14 414.2 0 601" stroke="#000" stroke-width="2"/><path d="m199.5 117.28 4-3-3 5 6 1-5.5 1c4 18.8-15.34 20.5-25.5 19 0 0 4-1.92 6-6-9.5-5.5-7.5-16.5-7.5-16.5 2.33 3.84 12 6.5 15.5 2.5 4-7 7.66-5.33 10-3Z" fill="#2FA9ED"/><path d="M398 274.04c0-15 0-112.5 14.95-118.5 14.95-6.02 296.44-6.46 303.98 4 7.54 10.47 10 121.46.03 123.4C707 284.9 398 289.99 398 274.05ZM387 120.78c0 10.14-8.48 17.5-18.5 17.5-4.42 0-9.06-2.34-12.62-5.78-3.57-3.45-5.88-7.83-5.88-11.72 0-11.38 8.98-18.5 18.5-18.5 6.52 0 11.1 2.1 14.07 5.39 2.98 3.3 4.43 7.9 4.43 13.11ZM387 362.78c0 10.14-8.48 17.5-18.5 17.5-4.42 0-9.06-2.34-12.62-5.78-3.57-3.45-5.88-7.83-5.88-11.72 0-11.38 8.98-18.5 18.5-18.5 6.52 0 11.1 2.1 14.07 5.39 2.98 3.3 4.43 7.9 4.43 13.11Z" stroke="#000" stroke-width="2"/><path d="M493.6 105.1c-10.33-1.2-91 .92-92.5 1.45-1.48.54-.66 12.53.35 13 1.01.47 75.5-1 95.5-1.53 2-.05.16-12.51-3.35-12.92ZM401.87 135.54c-1.5-.46-1.2-7.97-.2-8 1-.02 78.5-1.08 79.48-1.6.98-.53 1.79 10.96.25 9.5-1.54-1.46-78.01.56-79.53.1ZM493.6 347.1c-10.33-1.2-91 .91-92.5 1.45-1.48.54-.66 12.53.35 13 1.01.47 75.5-1 95.5-1.53 2-.06.16-12.51-3.35-12.92ZM401.87 377.54c-1.5-.46-1.2-7.97-.2-8 1-.02 78.5-1.08 79.48-1.6.98-.53 1.79 10.96.25 9.5-1.54-1.46-78.01.56-79.53.1ZM509.35 113.18c-.66-1.11-.85-7.4 0-7.9.84-.49 28.45-.01 29.3.5.85.5.65 7.74 0 8.37-.65.63-28.65.13-29.3-.97ZM509.35 355.18c-.66-1.11-.85-7.4 0-7.9.84-.49 28.45-.01 29.3.5.85.5.65 7.74 0 8.37-.65.63-28.65.13-29.3-.97Z" fill="#D3D3D3"/><path d="M423.65 313.28h5.7v-1.38h-3.36v-.05l1.17-1.15c1.64-1.5 2.08-2.25 2.08-3.16 0-1.39-1.13-2.37-2.84-2.37-1.68 0-2.84 1-2.83 2.58h1.6c0-.77.48-1.24 1.21-1.24.7 0 1.23.44 1.23 1.14 0 .64-.39 1.08-1.12 1.78l-2.84 2.63v1.22Zm10.06.18c2.01 0 3.23-1.53 3.23-4.17 0-2.62-1.23-4.12-3.23-4.12s-3.23 1.5-3.23 4.12c0 2.63 1.21 4.17 3.23 4.17Zm0-1.4c-.92 0-1.51-.93-1.5-2.77 0-1.81.59-2.73 1.5-2.73s1.5.92 1.5 2.73c0 1.84-.58 2.77-1.5 2.77Zm4.45 1.22h1.67v-1.9l.45-.51 1.63 2.41h1.95l-2.34-3.4 2.23-2.6h-1.91l-1.92 2.28h-.1v-4.28h-1.66v8ZM431.6 457.4c1.8 0 3.08-1 3.08-2.36 0-1-.63-1.7-1.8-1.86v-.06c.9-.16 1.5-.8 1.5-1.7 0-1.25-1.1-2.25-2.75-2.25-1.64 0-2.88.96-2.9 2.35h1.62c.02-.61.58-1 1.27-1 .68 0 1.14.4 1.13 1.01 0 .63-.53 1.05-1.3 1.05h-.74v1.25h.74c.91 0 1.48.45 1.47 1.1 0 .63-.54 1.07-1.31 1.07-.75 0-1.3-.4-1.34-.98h-1.7c.03 1.4 1.28 2.37 3.03 2.37ZM518.13 305.28h-1.6l-1.97 1.26v1.5l1.83-1.15h.04v6.4h1.7v-8Zm5.03 8.18c2.02 0 3.23-1.53 3.24-4.17 0-2.62-1.23-4.12-3.24-4.12-2 0-3.22 1.5-3.23 4.12 0 2.63 1.22 4.17 3.23 4.17Zm0-1.4c-.91 0-1.5-.93-1.5-2.77 0-1.81.59-2.73 1.5-2.73s1.5.92 1.5 2.73c.01 1.84-.58 2.77-1.5 2.77Zm4.46 1.22h1.66v-1.9l.45-.51 1.64 2.41h1.95l-2.34-3.4 2.22-2.6h-1.9l-1.93 2.28h-.09v-4.28h-1.66v8ZM518.65 457.28h5.7v-1.38h-3.36v-.05l1.17-1.15c1.64-1.5 2.08-2.25 2.08-3.16 0-1.39-1.13-2.37-2.84-2.37-1.68 0-2.84 1-2.83 2.58h1.6c0-.77.48-1.24 1.21-1.24.7 0 1.23.44 1.23 1.14 0 .64-.39 1.08-1.12 1.78l-2.84 2.63v1.22Zm9.88.11c1.8 0 3.08-.99 3.08-2.35 0-1-.63-1.7-1.8-1.86v-.06c.89-.16 1.5-.8 1.5-1.7 0-1.25-1.1-2.25-2.75-2.25s-2.88.96-2.9 2.35h1.62c.02-.61.58-1 1.27-1 .68 0 1.14.4 1.13 1.01 0 .63-.53 1.05-1.3 1.05h-.74v1.25h.74c.9 0 1.48.45 1.47 1.1 0 .63-.54 1.07-1.32 1.07-.74 0-1.3-.4-1.33-.98h-1.7c.02 1.4 1.27 2.37 3.03 2.37ZM605.13 305.28h-1.6l-1.97 1.26v1.5l1.83-1.15h.04v6.4h1.7v-8Zm5.03 8.18c2.02 0 3.23-1.53 3.24-4.17 0-2.62-1.23-4.12-3.24-4.12-2 0-3.22 1.5-3.23 4.12 0 2.63 1.22 4.17 3.23 4.17Zm0-1.4c-.91 0-1.5-.93-1.5-2.77 0-1.81.59-2.73 1.5-2.73s1.5.92 1.5 2.73c.01 1.84-.58 2.77-1.5 2.77Zm7.58 1.4c2 0 3.22-1.53 3.23-4.17 0-2.62-1.23-4.12-3.23-4.12-2.01 0-3.23 1.5-3.23 4.12-.01 2.63 1.21 4.17 3.23 4.17Zm0-1.4c-.92 0-1.51-.93-1.51-2.77 0-1.81.6-2.73 1.5-2.73.92 0 1.51.92 1.51 2.73 0 1.84-.59 2.77-1.5 2.77Zm4.45 1.22h1.66v-1.9l.45-.51 1.64 2.41h1.95l-2.34-3.4 2.23-2.6h-1.91l-1.93 2.28h-.09v-4.28h-1.66v8ZM605.52 455.88h3.84v1.4h1.62v-1.4h1v-1.36h-1v-5.24h-2.12l-3.34 5.27v1.33Zm3.88-1.36h-2.17v-.06l2.1-3.33h.07v3.4Zm3.7 2.76h5.7v-1.38h-3.36v-.05l1.17-1.15c1.65-1.5 2.09-2.25 2.09-3.16 0-1.39-1.13-2.37-2.85-2.37-1.68 0-2.83 1-2.83 2.58h1.6c0-.77.49-1.24 1.22-1.24.7 0 1.23.44 1.23 1.14 0 .64-.4 1.08-1.12 1.78l-2.85 2.63v1.22ZM172.91 193.97l6.39-.12-.03-1.64-4.39.07-.04-2.25 4.05-.07-.03-1.65-4.05.07-.04-2.25 4.38-.08-.03-1.65-6.37.11.16 9.46Zm9.44-7.26-2.03.03 2.1 3.51-2.05 3.59 2.03-.04 1.34-2.47 1.44 2.42 2-.03-2.17-3.51 2-3.58-2.02.03-1.3 2.5-1.34-2.45Zm6 9.65 1.96-.04-.07-3.8h.06a2.1 2.1 0 0 0 2.04 1.22c1.61-.03 2.85-1.33 2.81-3.7-.04-2.44-1.38-3.62-2.94-3.6a2.09 2.09 0 0 0-1.99 1.32h-.09l-.02-1.19-1.94.04.17 9.75Zm1.81-6.24c-.02-1.27.5-2.08 1.46-2.1.97-.02 1.5.82 1.52 2.05.02 1.24-.49 2.1-1.45 2.12-.95.02-1.5-.8-1.53-2.07Zm8.16-6.05-1.96.03.16 9.46 1.97-.04-.17-9.45Zm4.95 9.5c2.15-.03 3.46-1.53 3.43-3.71-.04-2.2-1.4-3.64-3.56-3.6-2.15.03-3.46 1.52-3.42 3.72.03 2.18 1.4 3.63 3.55 3.6Zm-.02-1.52c-.99.02-1.51-.88-1.53-2.12-.03-1.24.47-2.16 1.46-2.18.97-.01 1.5.9 1.52 2.13.02 1.24-.47 2.16-1.45 2.17Zm4.79 1.3 1.96-.03-.07-4.01c-.01-.87.61-1.49 1.48-1.5.27 0 .65.03.83.1l-.03-1.75a2.95 2.95 0 0 0-.62-.06c-.8.01-1.43.49-1.68 1.37h-.07l-.02-1.24-1.9.03.12 7.1Zm8.22 0c1.75-.03 2.92-.9 3.17-2.23l-1.82-.09c-.19.55-.69.84-1.35.85-.98.02-1.61-.62-1.63-1.68l4.83-.09-.01-.54c-.04-2.4-1.52-3.57-3.4-3.54-2.09.04-3.41 1.54-3.37 3.73.04 2.25 1.4 3.63 3.58 3.59Zm-1.65-4.37a1.5 1.5 0 0 1 1.5-1.48 1.4 1.4 0 0 1 1.47 1.43l-2.97.05Z" fill="#000"/><path d="M173.86 173.69c-1.94-1.34 0-12.03 0-12.03 2.06-2.68 51-3.35 52.29-.67 1.29 2.67 1.29 12.7-1.3 12.7-2.57 0-49.06 1.34-51 0ZM169.2 216.73c-2.72-1.25 0-11.23 0-11.23 2.92-2.5 71.79-3.12 73.6-.63 1.82 2.5 1.82 11.86-1.81 11.86-3.64 0-69.06 1.25-71.78 0ZM166.15 243.73c-2.59-1.25 0-11.23 0-11.23 2.75-2.5 68-3.12 69.72-.63 1.72 2.5 1.72 11.86-1.72 11.86-3.45 0-65.42 1.25-68 0ZM164.38 267.73c-3.12-1.25 0-11.23 0-11.23 3.33-2.5 82.17-3.12 84.25-.63 2.08 2.5 2.08 11.86-2.08 11.86s-79.05 1.25-82.17 0ZM164.38 292.73c-3.12-1.25 0-11.23 0-11.23 3.33-2.5 82.17-3.12 84.25-.63 2.08 2.5 2.08 11.86-2.08 11.86s-79.05 1.25-82.17 0ZM163.24 316.77c-2.8-1.16 0-10.43 0-10.43 2.98-2.32 73.67-2.9 75.53-.58 1.87 2.32 1.87 11-1.86 11-3.73 0-70.87 1.17-73.67 0Z" fill="#D3D3D3"/><path d="M163.67 356.41c-3.76-1.96 0-17.65 0-17.65 4.02-3.92 99.17-4.9 101.68-.98 2.5 3.92 2.5 18.63-2.51 18.63-5.02 0-95.4 1.96-99.17 0Z" fill="#2FA9ED"/><g clip-path="url(#a)"><path d="M399.36 317.57s2.95-.52 4.97-1.72c9.1 2.18 14.67-10.07 6.76-14.9-9.1-4.17-16.22 4.93-10.6 11.83l-1.13 4.8Z" stroke="#000" stroke-width="2" stroke-linecap="round" stroke-linejoin="round"/></g><g clip-path="url(#b)"><path d="M403.36 461.57s2.95-.52 4.97-1.72c9.1 2.18 14.67-10.07 6.76-14.9-9.1-4.17-16.22 4.93-10.6 11.83l-1.13 4.8Z" stroke="#000" stroke-width="2" stroke-linecap="round" stroke-linejoin="round"/></g><path d="M590.1 303.5c-2.63-2.62-5.9-1.23-8.1.98-1.5-1.7-5.88-4.2-9.1-.97-5.08 5.07 5.92 12.06 9.1 15.23 3.12-3.12 13.14-10.2 8.1-15.23ZM590.1 446.85c-2.63-2.64-5.9-1.24-8.1.97-1.5-1.7-5.88-4.2-9.1-.97-5.08 5.07 5.92 12.05 9.1 15.23 3.12-3.13 13.14-10.2 8.1-15.23Z" stroke="#000" stroke-width="2" stroke-linecap="round" stroke-linejoin="round"/><g clip-path="url(#c)" stroke="#000" stroke-width="2" stroke-linecap="round" stroke-linejoin="round"><path d="m484.91 304.7 3.67-3.67 3.67 3.67"/><path d="M494.08 317.53c-2.48 0-5.5-.42-5.5-3.66v-12.84M505.08 313.87l-3.67 3.66-3.66-3.66"/><path d="M495.91 301.03c2.49 0 5.5.43 5.5 3.67v12.83"/></g><g clip-path="url(#d)" stroke="#000" stroke-width="2" stroke-linecap="round" stroke-linejoin="round"><path d="m488.91 448.7 3.67-3.67 3.67 3.67"/><path d="M498.08 461.53c-2.48 0-5.5-.42-5.5-3.66v-12.84M509.08 457.87l-3.67 3.66-3.66-3.66"/><path d="M499.91 445.03c2.49 0 5.5.43 5.5 3.67v12.83"/></g><path d="M403.89 404.78c-2-1.3-3-9.52 0-12.12 3-2.6 318.5-.87 321 0 2.5.86 0 9.52 0 12.12 0 2.6-319 1.3-321 0ZM404.05 426.78c-1.11-1.3-1.67-9.52 0-12.12 1.68-2.6 177.93-.87 179.33 0 1.4.86 0 9.52 0 12.12 0 2.6-178.21 1.3-179.33 0Z" fill="#D3D3D3"/><defs><clipPath id="a"><path fill="#fff" transform="translate(394 296.28)" d="M0 0h24v24H0z"/></clipPath><clipPath id="b"><path fill="#fff" transform="translate(398 440.28)" d="M0 0h24v24H0z"/></clipPath><clipPath id="c"><path fill="#fff" transform="rotate(-90 402.14 -81.86)" d="M0 0h22v22H0z"/></clipPath><clipPath id="d"><path fill="#fff" transform="rotate(-90 476.14 -11.86)" d="M0 0h22v22H0z"/></clipPath></defs></svg>