<svg fill="none" xmlns="http://www.w3.org/2000/svg" viewBox="0 0 1229 747"><path d="M80.75 77.66c2.15-2.44 6.08-4.87 11.83-7.23 5.72-2.36 13.13-4.6 22.13-6.73 18-4.26 42.3-8 71.97-11.18C246 46.18 326.75 42.17 421.63 41.04c189.76-2.25 435.93 7.06 680.05 32.4 25.76 2.68 47.84 19.14 53.89 44.17 17.92 74.12 31.76 205.65 32.62 322.93.43 58.64-2.38 113.67-9.53 156.15-3.58 21.24-8.23 39.3-14.08 53.1-5.87 13.83-12.87 23.2-21.04 27.32-4.58 2.3-12.51 4.46-23.47 6.46-10.93 1.98-24.78 3.79-41.13 5.42-32.72 3.26-75.41 5.81-124.72 7.72-98.62 3.83-223.67 5.1-348.22 4.36-124.56-.74-248.6-3.49-345.23-7.68-48.32-2.1-89.76-4.56-120.99-7.31a665.66 665.66 0 01-38.72-4.34c-10.1-1.51-17.09-3.08-20.67-4.65-3.44-1.52-6.7-4.92-9.76-10.18-3.04-5.25-5.82-12.24-8.32-20.77-5.01-17.05-8.9-40.07-11.77-67.15-5.75-54.15-7.46-124.38-6.11-195.16 1.34-70.78 5.73-142.07 12.16-198.35 3.2-28.14 6.93-52.5 11.03-71.17 2.05-9.33 4.19-17.22 6.4-23.43 2.22-6.23 4.48-10.68 6.72-13.22z" fill="#fff" stroke="#000" stroke-width="2"/><path d="M68 112c248.5-34.5 610.4-31.1 1090 18.5M115 86.5a8.5 8.5 0 01-17 0c0-2.24 1.17-4.1 2.87-5.43A9.63 9.63 0 01106.5 79c2.2 0 4.34 1 5.94 2.48 1.62 1.5 2.56 3.38 2.56 5.02zM144 82.5a8.5 8.5 0 01-17 0c0-2.24 1.17-4.1 2.87-5.43A9.63 9.63 0 01135.5 75c2.2 0 4.34 1 5.94 2.48 1.62 1.5 2.56 3.38 2.56 5.02zM174 78.5a8.5 8.5 0 01-17 0c0-2.24 1.17-4.1 2.87-5.43A9.63 9.63 0 01165.5 71c2.2 0 4.34 1 5.94 2.48 1.62 1.5 2.56 3.38 2.56 5.02zM835.64 134.68c-74.92-8.11-208.73-11.71-282.06-8.53-9.42.4-17 7.56-18.17 16.92-1.28 10.26 10.04 18.15 20.37 17.84 53.48-1.63 199.49 4.91 281.8 8.69 5.6.26 11.54-1.66 13.3-6.98 1.35-4.13 1.75-9.7-.35-16.77-1.93-6.5-8.15-10.44-14.89-11.17z" stroke="#000" stroke-width="2"/><path d="M831.3 153l5.7 7m-9.61-16.94c-4.27-.74-7.97 5.87-5.7 9.57 2.36 3.84 10.27 2.16 11.04-2.2.71-4.06-1.07-6.64-5.34-7.37zM290.5 93c-22.5 149-21.6 414.2 0 601" stroke="#000" stroke-width="2"/><path d="M123.69 122.87c-6.56-.43-15.52.48-21.77 1.38-2.75.4-5.15 2.14-5.73 4.85-.98 4.52-.94 10.28 1.36 11.75 2.63 1.7 20.39.52 27.32-1.3 1.78-.46 2.79-2.03 3-3.85.4-3.18.6-7.22-.1-10-.44-1.8-2.23-2.7-4.08-2.83z" fill="#EB5050"/><path d="M108 136.15v-7.3a.5.5 0 01.75-.43l6.47 3.64a.5.5 0 010 .88l-6.47 3.64a.5.5 0 01-.75-.44z" fill="#fff"/><path d="M137.2 136.62c-1.6-.68-1.6-8.15 0-11.55 1.6-3.4 56.1-3.4 58.5-2.71 2.4.67 2.89 9.5 1.6 12.22-1.27 2.72-58.5 2.72-60.1 2.04z" fill="#A9A9A9"/><path d="M89.6 205.75l6.4-.1-.03-1.65-4.4.07-.03-2.25 4.04-.07-.03-1.65-4.04.07-.04-2.25 4.37-.08-.03-1.65-6.37.11.17 9.45zm9.44-7.25l-2.03.04 2.1 3.5-2.04 3.59 2.03-.04 1.33-2.47 1.44 2.43 2.01-.04-2.17-3.5 1.99-3.59-2.02.04-1.29 2.5-1.35-2.46zm6 9.65l1.97-.03-.07-3.8h.06a2.1 2.1 0 002.03 1.22c1.62-.03 2.86-1.33 2.81-3.7-.04-2.44-1.38-3.62-2.93-3.6a2.09 2.09 0 00-2 1.32h-.08l-.03-1.19-1.94.03.18 9.75zm1.81-6.24c-.02-1.26.5-2.08 1.46-2.1.97 0 1.5.83 1.53 2.06.02 1.23-.5 2.1-1.46 2.12-.94.01-1.5-.81-1.53-2.08zm8.17-6.04l-1.97.03.17 9.45 1.96-.03-.17-9.45zm4.95 9.5c2.15-.03 3.46-1.52 3.42-3.7-.04-2.2-1.4-3.65-3.56-3.61-2.15.03-3.46 1.52-3.42 3.72.04 2.18 1.4 3.63 3.56 3.6zm-.02-1.52c-1 .02-1.52-.88-1.54-2.12-.02-1.23.47-2.16 1.46-2.17.97-.02 1.5.89 1.52 2.12.02 1.24-.47 2.16-1.44 2.17zm4.78 1.3l1.97-.03-.08-4c-.01-.88.62-1.49 1.48-1.5.28 0 .65.03.84.09l-.03-1.75a2.95 2.95 0 00-.63-.06c-.79.02-1.43.49-1.67 1.37h-.08l-.02-1.23-1.9.03.12 7.09zm8.22 0c1.76-.02 2.92-.9 3.18-2.22l-1.82-.09c-.2.55-.7.84-1.35.85-.98.02-1.62-.63-1.64-1.68l4.83-.09-.01-.54c-.04-2.4-1.52-3.57-3.4-3.54-2.08.03-3.4 1.54-3.37 3.73.04 2.24 1.4 3.62 3.58 3.59zm-1.65-4.37a1.5 1.5 0 011.5-1.47 1.4 1.4 0 011.48 1.42l-2.98.06z" fill="#000"/><path d="M92.86 186.4c-1.94-1.33 0-12.03 0-12.03 2.07-2.67 51-3.34 52.3-.67 1.28 2.68 1.28 12.7-1.3 12.7s-49.06 1.34-51 0zM88.21 229.44c-2.72-1.24 0-11.23 0-11.23 2.9-2.5 71.78-3.12 73.6-.62 1.81 2.5 1.81 11.85-1.82 11.85-3.64 0-69.05 1.25-71.78 0zM85.51 281.44c-3.4-1.24 0-11.23 0-11.23 3.64-2.5 89.73-3.12 92-.62 2.27 2.5 2.27 11.86-2.27 11.86-4.55 0-86.32 1.24-89.73 0zM84.39 409.44c-3.12-1.24 0-11.23 0-11.23 3.33-2.5 82.16-3.12 84.24-.62 2.08 2.5 2.08 11.86-2.08 11.86s-79.04 1.24-82.16 0zM83.26 305.44c-2.83-1.24 0-11.23 0-11.23 3.02-2.5 74.61-3.12 76.5-.62 1.89 2.5 1.89 11.86-1.89 11.86s-71.78 1.24-74.61 0zM84.51 433.44c-3.4-1.24 0-11.23 0-11.23 3.64-2.5 89.73-3.12 92-.62 2.27 2.5 2.27 11.86-2.27 11.86-4.55 0-86.32 1.24-89.73 0zM83.39 330.44c-3.12-1.24 0-11.23 0-11.23 3.33-2.5 82.16-3.12 84.24-.62 2.08 2.5 2.08 11.86-2.08 11.86s-79.04 1.24-82.16 0zM84.43 458.44c-3.22-1.24 0-11.23 0-11.23 3.45-2.5 85-3.12 87.16-.62 2.15 2.5 2.15 11.86-2.16 11.86-4.3 0-81.77 1.24-85 0zM82.67 354.49c-3.76-1.16 0-10.44 0-10.44 4.02-2.31 99.17-2.9 101.68-.57 2.51 2.31 2.51 11-2.51 11s-95.4 1.16-99.17 0zM86.34 482.49c-3.01-1.16 0-10.44 0-10.44 3.21-2.31 79.33-2.9 81.34-.57 2 2.31 2 11-2 11-4.03 0-76.33 1.16-79.34 0z" fill="#D3D3D3"/></svg>