<svg fill="none" xmlns="http://www.w3.org/2000/svg" viewBox="0 0 1229 747"><path d="M80.75 77.66c2.15-2.44 6.08-4.87 11.83-7.23 5.72-2.36 13.13-4.6 22.13-6.73 18-4.26 42.3-8 71.97-11.18C246 46.18 326.75 42.17 421.63 41.04c189.76-2.25 435.93 7.06 680.05 32.4 25.76 2.68 47.84 19.14 53.89 44.17 17.92 74.12 31.76 205.65 32.62 322.93.43 58.64-2.38 113.67-9.53 156.15-3.58 21.24-8.23 39.3-14.08 53.1-5.87 13.83-12.87 23.2-21.04 27.32-4.58 2.3-12.51 4.46-23.47 6.46-10.93 1.98-24.78 3.79-41.13 5.42-32.72 3.26-75.41 5.81-124.72 7.72-98.62 3.83-223.67 5.1-348.22 4.36-124.56-.74-248.6-3.49-345.23-7.68-48.32-2.1-89.76-4.56-120.99-7.31a665.66 665.66 0 01-38.72-4.34c-10.1-1.51-17.09-3.08-20.67-4.65-3.44-1.52-6.7-4.92-9.76-10.18-3.04-5.25-5.82-12.24-8.32-20.77-5.01-17.05-8.9-40.07-11.77-67.15-5.75-54.15-7.46-124.38-6.11-195.16 1.34-70.78 5.73-142.07 12.16-198.35 3.2-28.14 6.93-52.5 11.03-71.17 2.05-9.33 4.19-17.22 6.4-23.43 2.22-6.23 4.48-10.68 6.72-13.22z" fill="#fff" stroke="#000" stroke-width="2"/><path d="M68 112c248.5-34.5 610.4-31.1 1090 18.5M115 86.5a8.5 8.5 0 01-17 0c0-2.24 1.17-4.1 2.87-5.43A9.63 9.63 0 01106.5 79c2.2 0 4.34 1 5.94 2.48 1.62 1.5 2.56 3.38 2.56 5.02zM144 82.5a8.5 8.5 0 01-17 0c0-2.24 1.17-4.1 2.87-5.43A9.63 9.63 0 01135.5 75c2.2 0 4.34 1 5.94 2.48 1.62 1.5 2.56 3.38 2.56 5.02zM174 78.5a8.5 8.5 0 01-17 0c0-2.24 1.17-4.1 2.87-5.43A9.63 9.63 0 01165.5 71c2.2 0 4.34 1 5.94 2.48 1.62 1.5 2.56 3.38 2.56 5.02zM835.64 134.68c-74.92-8.11-208.73-11.71-282.06-8.53-9.42.4-17 7.56-18.17 16.92-1.28 10.26 10.04 18.15 20.37 17.84 53.48-1.63 199.49 4.91 281.8 8.69 5.6.26 11.54-1.66 13.3-6.98 1.35-4.13 1.75-9.7-.35-16.77-1.93-6.5-8.15-10.44-14.89-11.17z" stroke="#000" stroke-width="2"/><path d="M831.3 153l5.7 7m-9.61-16.94c-4.27-.74-7.97 5.87-5.7 9.57 2.36 3.84 10.27 2.16 11.04-2.2.71-4.06-1.07-6.64-5.34-7.37zM290.5 93c-22.5 149-21.6 414.2 0 601" stroke="#000" stroke-width="2"/><path d="M123.69 122.87c-6.56-.43-15.52.48-21.77 1.38-2.75.4-5.15 2.14-5.73 4.85-.98 4.52-.94 10.28 1.36 11.75 2.63 1.7 20.39.52 27.32-1.3 1.78-.46 2.79-2.03 3-3.85.4-3.18.6-7.22-.1-10-.44-1.8-2.23-2.7-4.08-2.83z" fill="#EB5050"/><path d="M108 136.15v-7.3a.5.5 0 01.75-.43l6.47 3.64a.5.5 0 010 .88l-6.47 3.64a.5.5 0 01-.75-.44z" fill="#fff"/><path d="M137.2 136.62c-1.6-.68-1.6-8.15 0-11.55 1.6-3.4 56.1-3.4 58.5-2.71 2.4.67 2.89 9.5 1.6 12.22-1.27 2.72-58.5 2.72-60.1 2.04z" fill="#A9A9A9"/><path d="M331.63 311.3c-8.94-16.49-7.9-89.34 7.9-99.43 15.82-10.1 150.69-5.98 161.98 3.36 11.29 9.35 10.77 99.81-1.27 103.55-12.04 3.74-160.7 7.1-168.6-7.48z" fill="#fff" stroke="#000" stroke-width="2"/><path d="M366 354.5c0 10.14-8.47 17.5-18.5 17.5-4.42 0-9.06-2.34-12.62-5.78-3.57-3.45-5.88-7.83-5.88-11.72 0-11.38 8.98-18.5 18.5-18.5 6.52 0 11.1 2.1 14.07 5.38 2.98 3.3 4.43 7.91 4.43 13.12z" stroke="#000" stroke-width="2"/><path d="M473 341c-10.3-1.47-91-2.5-92.5-2s-1 12.5 0 13 75.5 2 95.5 2c2 0 .5-12.5-3-13zM380.5 368c-1.5-.5-1-8 0-8s78.5 1 79.5.5 1.5 11 0 9.5-78-1.5-79.5-2z" fill="#D3D3D3"/><path d="M379.65 387h5.7v-1.38H382v-.06l1.17-1.14c1.64-1.5 2.09-2.25 2.09-3.16 0-1.39-1.14-2.37-2.85-2.37-1.68 0-2.83 1-2.83 2.57h1.6c0-.76.49-1.23 1.22-1.23.7 0 1.22.44 1.22 1.14 0 .64-.39 1.07-1.11 1.77l-2.85 2.64V387zm9.88.1c1.8 0 3.09-.98 3.08-2.35 0-1-.63-1.7-1.8-1.85v-.06c.9-.16 1.5-.8 1.5-1.7 0-1.26-1.1-2.25-2.75-2.25-1.64 0-2.88.96-2.9 2.34h1.62c.02-.6.58-1 1.27-1 .68 0 1.14.41 1.14 1.02 0 .63-.54 1.05-1.3 1.05h-.75v1.24h.75c.9 0 1.47.46 1.46 1.1 0 .64-.54 1.07-1.31 1.07-.75 0-1.3-.39-1.34-.97h-1.7c.03 1.4 1.28 2.37 3.03 2.37zm7.22 0c1.78 0 3-1.15 2.99-2.77 0-1.53-1.07-2.63-2.51-2.63-.7 0-1.3.3-1.59.69h-.05l.21-2h3.5V379h-4.9l-.37 4.22 1.5.27c.25-.33.72-.54 1.2-.54.8 0 1.38.59 1.38 1.43 0 .83-.57 1.4-1.36 1.4-.67 0-1.21-.42-1.25-1.04h-1.64c.03 1.38 1.23 2.37 2.89 2.37zm4.21-.1h1.7v-2.27l.83-1.02 2.19 3.29h2.02l-3-4.42 2.97-3.58h-2.03l-2.88 3.53h-.1V379h-1.7v8zm15.7-6h-1.76l-1.25 4.3h-.06l-1.24-4.3h-1.76l2.1 6h1.87l2.1-6zm.85 6h1.66v-6h-1.66v6zm.84-6.77c.5 0 .9-.38.9-.85 0-.46-.4-.84-.9-.84s-.9.38-.9.84c0 .47.4.85.9.85zm4.89 6.89c1.49 0 2.49-.73 2.72-1.84l-1.54-.1c-.17.46-.6.7-1.15.7-.83 0-1.36-.56-1.36-1.45h4.08v-.46c0-2.04-1.23-3.05-2.82-3.05-1.76 0-2.9 1.26-2.9 3.1 0 1.91 1.12 3.1 2.97 3.1zm-1.33-3.73c.03-.68.55-1.23 1.3-1.23.71 0 1.21.52 1.22 1.23h-2.52zm6.31 3.61h1.76l1.03-3.77h.07l1.04 3.77h1.76l1.63-6h-1.68l-.92 4h-.05l-.98-4h-1.65l-.97 4.03h-.06l-.93-4.03h-1.68l1.63 6zm13.17-4.29c-.15-1.1-1.04-1.79-2.56-1.79-1.53 0-2.55.71-2.54 1.87 0 .9.56 1.48 1.73 1.71l1.04.21c.52.1.76.3.77.6 0 .35-.4.6-.98.6-.59 0-.98-.25-1.09-.73l-1.63.08c.15 1.15 1.13 1.86 2.72 1.86 1.55 0 2.67-.8 2.67-1.98 0-.87-.57-1.39-1.73-1.62l-1.09-.22c-.56-.12-.76-.32-.76-.6 0-.36.4-.6.92-.6.58 0 .92.32 1 .7l1.53-.09zM89.6 205.75l6.4-.1-.03-1.65-4.4.07-.03-2.25 4.04-.07-.03-1.65-4.04.07-.04-2.25 4.37-.08-.03-1.65-6.37.11.17 9.45zm9.44-7.25l-2.03.04 2.1 3.5-2.04 3.59 2.03-.04 1.33-2.47 1.44 2.43 2.01-.04-2.17-3.5 1.99-3.59-2.02.04-1.29 2.5-1.35-2.46zm6 9.65l1.97-.03-.07-3.8h.06a2.1 2.1 0 002.03 1.22c1.62-.03 2.86-1.33 2.81-3.7-.04-2.44-1.38-3.62-2.93-3.6a2.09 2.09 0 00-2 1.32h-.08l-.03-1.19-1.94.03.18 9.75zm1.81-6.24c-.02-1.26.5-2.08 1.46-2.1.97 0 1.5.83 1.53 2.06.02 1.23-.5 2.1-1.46 2.12-.94.01-1.5-.81-1.53-2.08zm8.17-6.04l-1.97.03.17 9.45 1.96-.03-.17-9.45zm4.95 9.5c2.15-.03 3.46-1.52 3.42-3.7-.04-2.2-1.4-3.65-3.56-3.61-2.15.03-3.46 1.52-3.42 3.72.04 2.18 1.4 3.63 3.56 3.6zm-.02-1.52c-1 .02-1.52-.88-1.54-2.12-.02-1.23.47-2.16 1.46-2.17.97-.02 1.5.89 1.52 2.12.02 1.24-.47 2.16-1.44 2.17zm4.78 1.3l1.97-.03-.08-4c-.01-.88.62-1.49 1.48-1.5.28 0 .65.03.84.09l-.03-1.75a2.95 2.95 0 00-.63-.06c-.79.02-1.43.49-1.67 1.37h-.08l-.02-1.23-1.9.03.12 7.09zm8.22 0c1.76-.02 2.92-.9 3.18-2.22l-1.82-.09c-.2.55-.7.84-1.35.85-.98.02-1.62-.63-1.64-1.68l4.83-.09-.01-.54c-.04-2.4-1.52-3.57-3.4-3.54-2.08.03-3.4 1.54-3.37 3.73.04 2.24 1.4 3.62 3.58 3.59zm-1.65-4.37a1.5 1.5 0 011.5-1.47 1.4 1.4 0 011.48 1.42l-2.98.06z" fill="#000"/><path d="M331.63 530.3c-8.94-16.49-7.9-89.34 7.9-99.43 15.82-10.1 150.69-5.98 161.98 3.36 11.29 9.35 10.77 99.81-1.27 103.55-12.04 3.74-160.7 7.1-168.6-7.48z" fill="#fff" stroke="#000" stroke-width="2"/><path d="M366 573.5c0 10.14-8.47 17.5-18.5 17.5-4.42 0-9.06-2.34-12.62-5.78-3.57-3.45-5.88-7.83-5.88-11.72 0-11.38 8.98-18.5 18.5-18.5 6.52 0 11.1 2.1 14.07 5.38 2.98 3.3 4.43 7.91 4.43 13.12z" stroke="#000" stroke-width="2"/><path d="M473 560c-10.3-1.47-91-2.5-92.5-2s-1 12.5 0 13 75.5 2 95.5 2c2 0 .5-12.5-3-13zM380.5 587c-1.5-.5-1-8 0-8s78.5 1 79.5.5 1.5 11 0 9.5-78-1.5-79.5-2z" fill="#D3D3D3"/><path d="M379.53 604.6h3.84v1.4h1.61v-1.4h1v-1.36h-1V598h-2.11l-3.34 5.26v1.33zm3.87-1.36h-2.17v-.06l2.1-3.34h.07v3.4zm3.75-5.24v8h1.64v-5.23h.07l2.07 5.2h1.12l2.06-5.18h.07V606h1.64v-8h-2.08l-2.2 5.38h-.1l-2.2-5.38h-2.09zm18.17 2h-1.76l-1.24 4.3h-.06L401 600h-1.76l2.1 6h1.88l2.1-6zm.86 6h1.66v-6h-1.66v6zm.83-6.77c.5 0 .9-.38.9-.85 0-.46-.4-.84-.9-.84-.49 0-.9.38-.9.84 0 .47.41.85.9.85zm4.9 6.89c1.48 0 2.48-.73 2.72-1.84l-1.54-.1c-.17.46-.6.7-1.15.7-.84 0-1.37-.56-1.37-1.45h4.1v-.46c0-2.04-1.24-3.05-2.83-3.05-1.76 0-2.9 1.26-2.9 3.1 0 1.91 1.12 3.1 2.97 3.1zm-1.34-3.73c.04-.68.56-1.23 1.3-1.23.72 0 1.22.52 1.23 1.24h-2.53zm6.32 3.61h1.76l1.03-3.77h.07l1.03 3.77h1.76l1.63-6h-1.68l-.91 4h-.05l-.99-4h-1.65l-.97 4.03h-.05l-.93-4.03h-1.69l1.64 6zm13.16-4.29c-.15-1.1-1.04-1.79-2.55-1.79-1.54 0-2.55.71-2.55 1.87 0 .9.57 1.48 1.74 1.71l1.04.21c.52.1.76.3.77.6-.01.35-.4.6-.98.6-.6 0-.99-.25-1.09-.73l-1.63.08c.15 1.15 1.13 1.86 2.72 1.86 1.55 0 2.67-.8 2.67-1.98 0-.87-.57-1.39-1.74-1.62l-1.08-.22c-.56-.12-.77-.32-.76-.6 0-.36.4-.6.91-.6.58 0 .93.32 1 .7l1.53-.09z" fill="#000"/><path d="M535.63 311.3c-8.93-16.49-7.9-89.34 7.9-99.43 15.82-10.1 150.69-5.98 161.98 3.36 11.29 9.35 10.77 99.81-1.27 103.55-12.04 3.74-160.7 7.1-168.6-7.48z" fill="#fff" stroke="#000" stroke-width="2"/><path d="M570 354.5c0 10.14-8.47 17.5-18.5 17.5-4.42 0-9.05-2.34-12.62-5.78-3.57-3.45-5.88-7.83-5.88-11.72 0-11.38 8.98-18.5 18.5-18.5 6.52 0 11.1 2.1 14.07 5.38 2.98 3.3 4.43 7.91 4.43 13.12z" stroke="#000" stroke-width="2"/><path d="M677 341c-10.3-1.47-91-2.5-92.5-2s-1 12.5 0 13 75.5 2 95.5 2c2 0 .5-12.5-3-13zM584.5 368c-1.5-.5-1-8 0-8s78.5 1 79.5.5 1.5 11 0 9.5-78-1.5-79.5-2z" fill="#D3D3D3"/><path d="M586.6 387.1c1.8 0 3.09-.98 3.08-2.35 0-1-.63-1.7-1.8-1.85v-.06c.9-.16 1.51-.8 1.5-1.7.01-1.26-1.1-2.25-2.75-2.25-1.64 0-2.88.96-2.9 2.34h1.62c.02-.6.58-1 1.27-1 .68 0 1.14.41 1.14 1.02 0 .63-.53 1.05-1.3 1.05h-.75v1.24h.75c.9 0 1.47.46 1.47 1.1 0 .64-.55 1.07-1.32 1.07-.75 0-1.3-.39-1.34-.97h-1.7c.03 1.4 1.28 2.37 3.03 2.37zm4.35-8.1v8h1.64v-5.23h.06l2.07 5.2h1.12l2.07-5.18h.07V387h1.64v-8h-2.09l-2.2 5.38h-.1l-2.2-5.38h-2.08zm18.17 2h-1.76l-1.24 4.3h-.07l-1.24-4.3h-1.76l2.1 6h1.87l2.1-6zm.85 6h1.67v-6h-1.67v6zm.84-6.77c.5 0 .9-.38.9-.85 0-.46-.4-.84-.9-.84s-.9.38-.9.84c0 .47.4.85.9.85zm4.9 6.89c1.48 0 2.48-.73 2.71-1.84l-1.54-.1c-.16.46-.6.7-1.15.7-.83 0-1.36-.56-1.36-1.45h4.09v-.46c0-2.04-1.24-3.05-2.82-3.05-1.77 0-2.91 1.26-2.91 3.1 0 1.91 1.13 3.1 2.97 3.1zm-1.34-3.73c.04-.68.56-1.23 1.3-1.23.72 0 1.22.52 1.22 1.23h-2.52zm6.31 3.61h1.76l1.03-3.77h.08l1.03 3.77h1.76l1.63-6h-1.68l-.91 4h-.06l-.98-4h-1.65l-.97 4.03h-.06l-.93-4.03h-1.68l1.63 6zm13.17-4.29c-.15-1.1-1.04-1.79-2.56-1.79-1.53 0-2.54.71-2.54 1.87 0 .9.56 1.48 1.74 1.71l1.03.21c.53.1.77.3.77.6 0 .35-.4.6-.97.6-.6 0-1-.25-1.1-.73l-1.63.08c.16 1.15 1.13 1.86 2.72 1.86 1.56 0 2.67-.8 2.68-1.98 0-.87-.58-1.39-1.74-1.62l-1.09-.22c-.55-.12-.76-.32-.76-.6 0-.36.4-.6.92-.6.58 0 .92.32 1 .7l1.53-.09z" fill="#000"/><path d="M535.63 530.3c-8.93-16.49-7.9-89.34 7.9-99.43 15.82-10.1 150.69-5.98 161.98 3.36 11.29 9.35 10.77 99.81-1.27 103.55-12.04 3.74-160.7 7.1-168.6-7.48z" fill="#fff" stroke="#000" stroke-width="2"/><path d="M570 573.5c0 10.14-8.47 17.5-18.5 17.5-4.42 0-9.05-2.34-12.62-5.78-3.57-3.45-5.88-7.83-5.88-11.72 0-11.38 8.98-18.5 18.5-18.5 6.52 0 11.1 2.1 14.07 5.38 2.98 3.3 4.43 7.91 4.43 13.12z" stroke="#000" stroke-width="2"/><path d="M677 560c-10.3-1.47-91-2.5-92.5-2s-1 12.5 0 13 75.5 2 95.5 2c2 0 .5-12.5-3-13zM584.5 587c-1.5-.5-1-8 0-8s78.5 1 79.5.5 1.5 11 0 9.5-78-1.5-79.5-2z" fill="#D3D3D3"/><path d="M586.63 606.1c1.8 0 3.1-.96 3.1-2.25 0-1-.76-1.82-1.73-1.98v-.05a1.8 1.8 0 001.44-1.78c0-1.24-1.19-2.15-2.8-2.15-1.63 0-2.82.91-2.81 2.15 0 .88.58 1.6 1.44 1.78v.05c-.98.16-1.74.98-1.74 1.98 0 1.3 1.3 2.26 3.1 2.26zm0-1.23c-.8 0-1.34-.48-1.34-1.15 0-.7.57-1.2 1.34-1.2.78 0 1.35.5 1.35 1.2 0 .67-.55 1.15-1.35 1.15zm0-3.58c-.67 0-1.15-.44-1.15-1.07 0-.63.47-1.06 1.15-1.06.68 0 1.16.44 1.16 1.06 0 .63-.49 1.07-1.16 1.07zm7.43 4.89c2 0 3.22-1.53 3.23-4.17 0-2.62-1.23-4.12-3.23-4.12-2.01 0-3.23 1.5-3.23 4.12-.01 2.63 1.21 4.16 3.23 4.17zm0-1.4c-.92 0-1.51-.93-1.51-2.77 0-1.82.6-2.73 1.5-2.73.92 0 1.51.91 1.51 2.73 0 1.84-.59 2.76-1.5 2.76zm7.57 1.4c2.01 0 3.23-1.53 3.23-4.17 0-2.62-1.23-4.12-3.23-4.12s-3.23 1.5-3.23 4.12c0 2.63 1.22 4.16 3.23 4.17zm0-1.4c-.92 0-1.51-.93-1.5-2.77 0-1.82.59-2.73 1.5-2.73s1.5.91 1.5 2.73c0 1.84-.59 2.76-1.5 2.76zm4.48 1.22h1.7v-2.27l.83-1.02 2.19 3.29h2.02l-3-4.42 2.97-3.58h-2.03l-2.88 3.53h-.1V598h-1.7v8zm15.7-6h-1.76l-1.25 4.3h-.06l-1.25-4.3h-1.75l2.1 6h1.87l2.1-6zm.85 6h1.66v-6h-1.66v6zm.83-6.77c.5 0 .9-.38.9-.85 0-.46-.4-.84-.9-.84-.49 0-.9.38-.9.84 0 .47.41.85.9.85zm4.9 6.89c1.48 0 2.48-.73 2.72-1.84l-1.54-.1c-.17.46-.6.7-1.15.7-.83 0-1.36-.56-1.36-1.45h4.08v-.46c0-2.04-1.23-3.05-2.82-3.05-1.76 0-2.9 1.26-2.9 3.1 0 1.91 1.12 3.1 2.97 3.1zm-1.33-3.73c.03-.68.55-1.23 1.3-1.23.71 0 1.21.52 1.22 1.24h-2.52zm6.31 3.61h1.76l1.03-3.77h.07l1.03 3.77h1.77l1.63-6h-1.68l-.92 4h-.05l-.98-4h-1.66l-.97 4.03h-.05l-.93-4.03h-1.68l1.63 6zm13.16-4.29c-.14-1.1-1.03-1.79-2.55-1.79-1.53 0-2.55.71-2.54 1.87 0 .9.56 1.48 1.73 1.71l1.04.21c.52.1.76.3.77.6 0 .35-.4.6-.98.6-.59 0-.98-.25-1.09-.73l-1.63.08c.15 1.15 1.13 1.86 2.72 1.86 1.55 0 2.67-.8 2.67-1.98 0-.87-.57-1.39-1.73-1.62l-1.09-.22c-.56-.12-.76-.32-.76-.6 0-.36.4-.6.92-.6.58 0 .92.32 1 .7l1.52-.09z" fill="#000"/><path d="M739.63 311.3c-8.93-16.49-7.9-89.34 7.9-99.43 15.82-10.1 150.69-5.98 161.98 3.36 11.29 9.35 10.77 99.81-1.27 103.55-12.04 3.74-160.7 7.1-168.6-7.48z" fill="#fff" stroke="#000" stroke-width="2"/><path d="M774 354.5c0 10.14-8.47 17.5-18.5 17.5-4.42 0-9.05-2.34-12.62-5.78-3.57-3.45-5.88-7.83-5.88-11.72 0-11.38 8.98-18.5 18.5-18.5 6.52 0 11.1 2.1 14.07 5.38 2.98 3.3 4.43 7.91 4.43 13.12z" stroke="#000" stroke-width="2"/><path d="M881 341c-10.3-1.47-91-2.5-92.5-2s-1 12.5 0 13 75.5 2 95.5 2c2 0 .5-12.5-3-13zM788.5 368c-1.5-.5-1-8 0-8s78.5 1 79.5.5 1.5 11 0 9.5-78-1.5-79.5-2z" fill="#D3D3D3"/><path d="M790.57 387.1c1.78 0 3-1.15 2.99-2.77 0-1.53-1.07-2.63-2.5-2.63-.71 0-1.32.3-1.6.69h-.05l.21-2h3.5V379h-4.9l-.37 4.22 1.5.27c.25-.33.72-.54 1.2-.54.8 0 1.38.59 1.38 1.43 0 .83-.57 1.4-1.36 1.4-.67 0-1.22-.42-1.25-1.04h-1.64c.03 1.38 1.23 2.37 2.89 2.37zm4.21-.1h1.7v-2.27l.83-1.02 2.19 3.29h2.02l-3-4.42 2.97-3.58h-2.03l-2.88 3.53h-.1V379h-1.7v8zm15.7-6h-1.76l-1.25 4.3h-.06l-1.25-4.3h-1.75l2.1 6h1.87l2.1-6zm.85 6h1.66v-6h-1.66v6zm.83-6.77c.5 0 .9-.38.9-.85 0-.46-.4-.84-.9-.84-.49 0-.9.38-.9.84 0 .47.41.85.9.85zm4.9 6.89c1.49 0 2.49-.73 2.72-1.84l-1.54-.1c-.17.46-.6.7-1.15.7-.83 0-1.36-.56-1.36-1.45h4.08v-.46c0-2.04-1.23-3.05-2.82-3.05-1.76 0-2.9 1.26-2.9 3.1 0 1.91 1.12 3.1 2.97 3.1zm-1.33-3.73c.03-.68.55-1.23 1.3-1.23.71 0 1.21.52 1.22 1.23h-2.52zm6.31 3.61h1.76l1.03-3.77h.07l1.04 3.77h1.76l1.63-6h-1.68l-.92 4h-.05l-.98-4h-1.66l-.96 4.03h-.06l-.93-4.03h-1.68l1.63 6zm13.17-4.29c-.15-1.1-1.04-1.79-2.56-1.79-1.53 0-2.55.71-2.54 1.87 0 .9.56 1.48 1.73 1.71l1.04.21c.52.1.76.3.77.6 0 .35-.4.6-.98.6-.59 0-.98-.25-1.08-.73l-1.64.08c.15 1.15 1.13 1.86 2.72 1.86 1.56 0 2.67-.8 2.67-1.98 0-.87-.57-1.39-1.73-1.62l-1.09-.22c-.56-.12-.76-.32-.76-.6 0-.36.4-.6.92-.6.58 0 .92.32 1 .7l1.53-.09z" fill="#000"/><path d="M739.63 530.3c-8.93-16.49-7.9-89.34 7.9-99.43 15.82-10.1 150.69-5.98 161.98 3.36 11.29 9.35 10.77 99.81-1.27 103.55-12.04 3.74-160.7 7.1-168.6-7.48z" fill="#fff" stroke="#000" stroke-width="2"/><path d="M774 573.5c0 10.14-8.47 17.5-18.5 17.5-4.42 0-9.05-2.34-12.62-5.78-3.57-3.45-5.88-7.83-5.88-11.72 0-11.38 8.98-18.5 18.5-18.5 6.52 0 11.1 2.1 14.07 5.38 2.98 3.3 4.43 7.91 4.43 13.12z" stroke="#000" stroke-width="2"/><path d="M881 560c-10.3-1.47-91-2.5-92.5-2s-1 12.5 0 13 75.5 2 95.5 2c2 0 .5-12.5-3-13zM788.5 587c-1.5-.5-1-8 0-8s78.5 1 79.5.5 1.5 11 0 9.5-78-1.5-79.5-2z" fill="#D3D3D3"/><path d="M787.65 606h5.7v-1.38H790v-.06l1.17-1.14c1.64-1.5 2.09-2.25 2.09-3.16 0-1.39-1.14-2.37-2.85-2.37-1.68 0-2.83 1-2.83 2.58h1.6c0-.77.49-1.24 1.22-1.24.7 0 1.22.44 1.22 1.14 0 .64-.39 1.08-1.11 1.77l-2.85 2.64V606zm10.06.18c2.02 0 3.23-1.53 3.23-4.17 0-2.62-1.22-4.12-3.23-4.12-2 0-3.22 1.5-3.23 4.12 0 2.63 1.22 4.16 3.23 4.17zm0-1.4c-.91 0-1.5-.93-1.5-2.77 0-1.82.59-2.73 1.5-2.73s1.5.91 1.5 2.73c.01 1.84-.58 2.76-1.5 2.76zm4.49 1.22h1.69v-2.27l.83-1.02 2.2 3.29h2.02l-3-4.42 2.96-3.58h-2.03l-2.88 3.53h-.1V598h-1.7v8zm15.69-6h-1.76l-1.24 4.3h-.07l-1.24-4.3h-1.76l2.1 6h1.87l2.1-6zm.85 6h1.66v-6h-1.66v6zm.84-6.77c.5 0 .9-.38.9-.85 0-.46-.4-.84-.9-.84s-.9.38-.9.84c0 .47.4.85.9.85zm4.9 6.89c1.48 0 2.48-.73 2.71-1.84l-1.54-.1c-.17.46-.6.7-1.15.7-.83 0-1.36-.56-1.36-1.45h4.09v-.46c0-2.04-1.24-3.05-2.82-3.05-1.77 0-2.91 1.26-2.91 3.1 0 1.91 1.13 3.1 2.97 3.1zm-1.34-3.73c.04-.68.56-1.23 1.3-1.23.72 0 1.22.52 1.22 1.24h-2.52zm6.31 3.61h1.76l1.03-3.77h.08l1.03 3.77h1.76l1.63-6h-1.68l-.91 4h-.06l-.98-4h-1.65l-.97 4.03h-.06l-.93-4.03h-1.68l1.63 6zm13.17-4.29c-.15-1.1-1.04-1.79-2.56-1.79-1.53 0-2.54.71-2.54 1.87 0 .9.56 1.48 1.74 1.71l1.03.21c.53.1.77.3.77.6 0 .35-.4.6-.97.6-.6 0-1-.25-1.1-.73l-1.63.08c.16 1.15 1.13 1.86 2.72 1.86 1.56 0 2.67-.8 2.67-1.98 0-.87-.57-1.39-1.73-1.62l-1.09-.22c-.55-.12-.76-.32-.76-.6 0-.36.4-.6.92-.6.58 0 .92.32 1 .7l1.53-.09z" fill="#000"/><path d="M943.63 311.3c-8.93-16.49-7.9-89.34 7.9-99.43 15.82-10.1 150.69-5.98 161.98 3.36 11.29 9.35 10.77 99.81-1.27 103.55-12.04 3.74-160.7 7.1-168.6-7.48z" fill="#fff" stroke="#000" stroke-width="2"/><path d="M978 354.5c0 10.14-8.47 17.5-18.5 17.5-4.42 0-9.05-2.34-12.62-5.78-3.57-3.45-5.88-7.83-5.88-11.72 0-11.38 8.98-18.5 18.5-18.5 6.52 0 11.1 2.1 14.07 5.38 2.98 3.3 4.43 7.91 4.43 13.12z" stroke="#000" stroke-width="2"/><path d="M1085 341c-10.3-1.47-91-2.5-92.5-2s-1 12.5 0 13 75.5 2 95.5 2c2 0 .5-12.5-3-13zM992.5 368c-1.5-.5-1-8 0-8s78.5 1 79.5.5 1.5 11 0 9.5-78-1.5-79.5-2z" fill="#D3D3D3"/><path d="M994.72 387.1c1.78.02 3-1.15 3-2.78 0-1.5-1.05-2.58-2.47-2.58a2.2 2.2 0 00-2.02 1.13h-.05c0-1.56.55-2.53 1.6-2.53.61 0 1.05.34 1.18.9h1.67c-.16-1.32-1.25-2.35-2.85-2.35-1.98 0-3.25 1.6-3.26 4.29 0 2.93 1.55 3.92 3.2 3.93zm0-1.32c-.79 0-1.37-.63-1.37-1.4 0-.79.6-1.42 1.37-1.42.78 0 1.35.61 1.35 1.4 0 .8-.58 1.42-1.36 1.42zm7.33 1.4c2.01 0 3.22-1.54 3.23-4.17 0-2.62-1.23-4.12-3.23-4.12-2.01 0-3.23 1.5-3.23 4.12-.01 2.63 1.21 4.16 3.23 4.17zm0-1.4c-.92 0-1.51-.93-1.51-2.77 0-1.82.59-2.73 1.51-2.73.91 0 1.5.91 1.5 2.73 0 1.84-.59 2.76-1.5 2.76zm4.48 1.22h1.69v-2.27l.83-1.02 2.2 3.29h2.02l-3.01-4.42 2.97-3.58h-2.02l-2.88 3.53h-.11V379h-1.69v8zm15.69-6h-1.76l-1.24 4.3h-.06l-1.25-4.3h-1.76l2.1 6h1.88l2.09-6zm.85 6h1.67v-6h-1.67v6zm.84-6.77c.5 0 .9-.38.9-.85 0-.46-.4-.84-.9-.84-.49 0-.9.38-.9.84 0 .47.41.85.9.85zm4.9 6.89c1.48 0 2.48-.73 2.71-1.84l-1.53-.1c-.17.46-.6.7-1.16.7-.83 0-1.36-.56-1.36-1.45h4.09v-.46c0-2.04-1.23-3.05-2.82-3.05-1.77 0-2.91 1.26-2.91 3.1 0 1.91 1.13 3.1 2.98 3.1zm-1.34-3.73c.04-.68.56-1.23 1.3-1.23.72 0 1.22.52 1.22 1.23h-2.52zm6.32 3.61h1.75l1.04-3.77h.07l1.03 3.77h1.76l1.63-6h-1.68l-.91 4h-.05l-.99-4h-1.65l-.97 4.03h-.05l-.93-4.03h-1.69l1.64 6zm13.16-4.29c-.15-1.1-1.04-1.79-2.55-1.79-1.54 0-2.55.71-2.55 1.87 0 .9.57 1.48 1.74 1.71l1.04.21c.52.1.76.3.77.6-.01.35-.4.6-.98.6-.59 0-.99-.25-1.09-.73l-1.64.08c.16 1.15 1.14 1.86 2.73 1.86 1.55 0 2.66-.8 2.67-1.98-.01-.87-.57-1.39-1.74-1.62l-1.08-.22c-.56-.12-.77-.32-.76-.6-.01-.36.4-.6.91-.6.58 0 .93.32 1.01.7l1.52-.09z" fill="#000"/><path d="M943.63 530.3c-8.93-16.49-7.9-89.34 7.9-99.43 15.82-10.1 150.69-5.98 161.98 3.36 11.29 9.35 10.77 99.81-1.27 103.55-12.04 3.74-160.7 7.1-168.6-7.48z" fill="#fff" stroke="#000" stroke-width="2"/><path d="M978 573.5c0 10.14-8.47 17.5-18.5 17.5-4.42 0-9.05-2.34-12.62-5.78-3.57-3.45-5.88-7.83-5.88-11.72 0-11.38 8.98-18.5 18.5-18.5 6.52 0 11.1 2.1 14.07 5.38 2.98 3.3 4.43 7.91 4.43 13.12z" stroke="#000" stroke-width="2"/><path d="M1085 560c-10.3-1.47-91-2.5-92.5-2s-1 12.5 0 13 75.5 2 95.5 2c2 0 .5-12.5-3-13zM992.5 587c-1.5-.5-1-8 0-8s78.5 1 79.5.5 1.5 11 0 9.5-78-1.5-79.5-2z" fill="#D3D3D3"/><path d="M994.6 606.1c1.8 0 3.09-.98 3.08-2.35 0-1-.63-1.7-1.8-1.85v-.06c.9-.16 1.51-.8 1.5-1.7.01-1.26-1.1-2.25-2.75-2.25-1.64 0-2.88.96-2.9 2.34h1.62c.02-.6.58-1 1.27-1 .68 0 1.14.41 1.14 1.02 0 .63-.53 1.05-1.3 1.05h-.75v1.24h.75c.9 0 1.47.46 1.47 1.1 0 .64-.55 1.08-1.32 1.08-.75 0-1.3-.4-1.34-.98h-1.7c.03 1.4 1.28 2.37 3.03 2.37zm7.22 0c1.78 0 2.99-1.15 2.99-2.77 0-1.53-1.07-2.63-2.51-2.63-.7 0-1.31.3-1.59.69h-.04l.2-2h3.5V598h-4.9l-.37 4.22 1.5.27c.25-.33.73-.54 1.2-.54.8 0 1.38.58 1.38 1.42s-.57 1.41-1.36 1.41c-.67 0-1.21-.42-1.25-1.04h-1.64c.03 1.38 1.24 2.37 2.89 2.37zm4.22-.1h1.69v-2.27l.83-1.02 2.19 3.29h2.02l-3-4.42 2.97-3.58h-2.03l-2.88 3.53h-.1V598h-1.69v8zm15.69-6h-1.76l-1.25 4.3h-.06l-1.24-4.3h-1.76l2.1 6h1.87l2.1-6zm.85 6h1.66v-6h-1.66v6zm.84-6.77c.49 0 .9-.38.9-.85 0-.46-.41-.84-.9-.84-.5 0-.9.38-.9.84 0 .47.4.85.9.85zm4.89 6.89c1.49 0 2.49-.73 2.72-1.84l-1.54-.1c-.17.46-.6.7-1.15.7-.83 0-1.36-.56-1.36-1.45h4.09v-.46c0-2.04-1.24-3.05-2.82-3.05-1.77 0-2.92 1.26-2.92 3.1 0 1.91 1.13 3.1 2.98 3.1zm-1.33-3.73c.03-.68.55-1.23 1.29-1.23.73 0 1.23.52 1.23 1.24h-2.52zm6.31 3.61h1.76l1.03-3.77h.08l1.03 3.77h1.76l1.63-6h-1.68l-.92 4h-.05l-.98-4h-1.65l-.97 4.03h-.06l-.93-4.03h-1.68l1.63 6zm13.17-4.29c-.15-1.1-1.04-1.79-2.56-1.79-1.53 0-2.54.71-2.54 1.87 0 .9.56 1.48 1.73 1.71l1.04.21c.53.1.76.3.77.6-.01.35-.39.6-.97.6-.6 0-.99-.25-1.09-.73l-1.64.08c.16 1.15 1.13 1.86 2.72 1.86 1.56 0 2.67-.8 2.67-1.98 0-.87-.57-1.39-1.73-1.62l-1.09-.22c-.56-.12-.76-.32-.76-.6 0-.36.4-.6.92-.6.58 0 .92.32 1 .7l1.53-.09z" fill="#000"/><path d="M92.86 186.4c-1.94-1.33 0-12.03 0-12.03 2.07-2.67 51-3.34 52.3-.67 1.28 2.68 1.28 12.7-1.3 12.7s-49.06 1.34-51 0zM88.21 229.44c-2.72-1.24 0-11.23 0-11.23 2.9-2.5 71.78-3.12 73.6-.62 1.81 2.5 1.81 11.85-1.82 11.85-3.64 0-69.05 1.25-71.78 0zM85.51 281.44c-3.4-1.24 0-11.23 0-11.23 3.64-2.5 89.73-3.12 92-.62 2.27 2.5 2.27 11.86-2.27 11.86-4.55 0-86.32 1.24-89.73 0zM84.39 409.44c-3.12-1.24 0-11.23 0-11.23 3.33-2.5 82.16-3.12 84.24-.62 2.08 2.5 2.08 11.86-2.08 11.86s-79.04 1.24-82.16 0zM83.26 305.44c-2.83-1.24 0-11.23 0-11.23 3.02-2.5 74.61-3.12 76.5-.62 1.89 2.5 1.89 11.86-1.89 11.86s-71.78 1.24-74.61 0zM84.51 433.44c-3.4-1.24 0-11.23 0-11.23 3.64-2.5 89.73-3.12 92-.62 2.27 2.5 2.27 11.86-2.27 11.86-4.55 0-86.32 1.24-89.73 0zM83.39 330.44c-3.12-1.24 0-11.23 0-11.23 3.33-2.5 82.16-3.12 84.24-.62 2.08 2.5 2.08 11.86-2.08 11.86s-79.04 1.24-82.16 0zM84.43 458.44c-3.22-1.24 0-11.23 0-11.23 3.45-2.5 85-3.12 87.16-.62 2.15 2.5 2.15 11.86-2.16 11.86-4.3 0-81.77 1.24-85 0zM82.67 354.49c-3.76-1.16 0-10.44 0-10.44 4.02-2.31 99.17-2.9 101.68-.57 2.51 2.31 2.51 11-2.51 11s-95.4 1.16-99.17 0zM86.34 482.49c-3.01-1.16 0-10.44 0-10.44 3.21-2.31 79.33-2.9 81.34-.57 2 2.31 2 11-2 11-4.03 0-76.33 1.16-79.34 0z" fill="#D3D3D3"/><mask id="a" style="mask-type:alpha" maskUnits="userSpaceOnUse" x="43" y="37" width="1147" height="664"><path d="M80.75 75.66c2.15-2.44 6.08-4.87 11.83-7.23 5.72-2.36 13.13-4.6 22.13-6.73 18-4.26 42.3-8 71.97-11.18C246 44.18 326.75 40.17 421.63 39.04c189.76-2.25 435.93 7.06 680.05 32.4 25.76 2.68 47.84 19.14 53.89 44.17 17.92 74.12 31.76 205.65 32.62 322.93.43 58.64-2.38 113.67-9.53 156.15-3.58 21.24-8.23 39.3-14.08 53.1-5.87 13.83-12.87 23.2-21.04 27.32-4.58 2.3-12.51 4.46-23.47 6.46-10.93 1.98-24.78 3.79-41.13 5.42-32.72 3.26-75.41 5.81-124.72 7.72-98.62 3.83-223.67 5.1-348.22 4.36-124.56-.74-248.6-3.49-345.23-7.68-48.32-2.1-89.76-4.56-120.99-7.31a665.66 665.66 0 01-38.72-4.34c-10.1-1.51-17.09-3.08-20.67-4.65-3.44-1.52-6.7-4.92-9.76-10.18-3.04-5.25-5.82-12.24-8.32-20.77-5.01-17.05-8.9-40.07-11.77-67.15-5.75-54.15-7.46-124.38-6.11-195.16 1.34-70.78 5.73-142.07 12.16-198.35 3.2-28.14 6.93-52.5 11.03-71.17 2.05-9.33 4.19-17.22 6.4-23.43 2.22-6.23 4.48-10.68 6.72-13.22z" fill="#fff" stroke="#000" stroke-width="2"/></mask><g mask="url(#a)" fill="#fff" stroke="#000" stroke-width="2"><path d="M331.63 750.3c-8.94-16.49-7.9-89.34 7.9-99.43 15.82-10.1 150.69-5.98 161.98 3.36 11.29 9.35 10.77 99.81-1.27 103.55-12.04 3.74-160.7 7.1-168.6-7.48zM535.63 750.3c-8.93-16.49-7.9-89.34 7.9-99.43 15.82-10.1 150.69-5.98 161.98 3.36 11.29 9.35 10.77 99.81-1.27 103.55-12.04 3.74-160.7 7.1-168.6-7.48zM739.63 750.3c-8.93-16.49-7.9-89.34 7.9-99.43 15.82-10.1 150.69-5.98 161.98 3.36 11.29 9.35 10.77 99.81-1.27 103.55-12.04 3.74-160.7 7.1-168.6-7.48zM943.63 750.3c-8.93-16.49-7.9-89.34 7.9-99.43 15.82-10.1 150.69-5.98 161.98 3.36 11.29 9.35 10.77 99.81-1.27 103.55-12.04 3.74-160.7 7.1-168.6-7.48z"/></g></svg>