<svg fill="none" xmlns="http://www.w3.org/2000/svg" viewBox="0 0 1147 664"><path d="M37.75 38.66c2.15-2.44 6.08-4.87 11.83-7.23 5.72-2.36 13.13-4.6 22.13-6.73 18-4.26 42.3-8 71.97-11.18C203 7.18 283.75 3.17 378.63 2.04 568.4-.2 814.57 9.1 1058.7 34.44c25.76 2.68 47.84 19.14 53.89 44.17 17.92 74.12 31.76 205.65 32.62 322.93.43 58.64-2.38 113.67-9.53 156.15-3.58 21.24-8.23 39.3-14.08 53.1-5.87 13.83-12.87 23.2-21.04 27.32-4.58 2.3-12.51 4.46-23.47 6.46-10.93 1.98-24.78 3.79-41.13 5.42-32.72 3.26-75.41 5.81-124.72 7.72-98.62 3.83-223.67 5.1-348.22 4.36-124.56-.74-248.6-3.49-345.23-7.68-48.32-2.1-89.76-4.56-120.99-7.31a665.64 665.64 0 01-38.72-4.34c-10.1-1.51-17.09-3.08-20.67-4.65-3.44-1.52-6.7-4.92-9.76-10.18-3.04-5.25-5.82-12.24-8.32-20.77-5.01-17.05-8.9-40.07-11.77-67.15C1.8 485.84.09 415.61 1.44 344.83c1.34-70.78 5.73-142.07 12.16-198.35 3.2-28.14 6.93-52.5 11.03-71.17 2.05-9.33 4.19-17.22 6.4-23.43 2.22-6.23 4.48-10.68 6.72-13.22zM25 73c248.5-34.5 610.4-31.1 1090 18.5" stroke="#000" stroke-width="2"/><path d="M72 47.5a8.5 8.5 0 01-17 0c0-2.24 1.17-4.1 2.87-5.43A9.62 9.62 0 0163.5 40c2.2 0 4.34 1 5.94 2.48 1.62 1.5 2.56 3.38 2.56 5.02zM101 43.5a8.5 8.5 0 01-17 0c0-2.24 1.17-4.1 2.87-5.43A9.62 9.62 0 0192.5 36c2.2 0 4.34 1 5.94 2.48 1.62 1.5 2.56 3.38 2.56 5.02zM131 39.5a8.5 8.5 0 01-17 0c0-2.24 1.17-4.1 2.87-5.43A9.63 9.63 0 01122.5 32c2.2 0 4.34 1 5.94 2.48 1.62 1.5 2.56 3.38 2.56 5.02zM792.64 95.68c-74.92-8.11-208.73-11.71-282.06-8.53-9.42.4-17 7.57-18.17 16.92-1.28 10.26 10.04 18.15 20.37 17.84 53.48-1.63 199.49 4.92 281.8 8.69 5.6.26 11.54-1.66 13.3-6.98 1.35-4.13 1.75-9.7-.35-16.77-1.93-6.5-8.15-10.44-14.89-11.17z" stroke="#000" stroke-width="2"/><path d="M788.3 114l5.7 7m-9.61-16.94c-4.27-.74-7.97 5.87-5.7 9.57 2.36 3.84 10.27 2.16 11.04-2.2.71-4.06-1.07-6.64-5.34-7.37zM247.5 54c-22.5 149-21.6 414.2 0 601" stroke="#000" stroke-width="2"/><path d="M80.69 83.87c-6.56-.43-15.52.49-21.77 1.38-2.75.4-5.15 2.14-5.73 4.85-.98 4.52-.94 10.28 1.36 11.76 2.63 1.69 20.39.5 27.32-1.3 1.78-.47 2.79-2.04 3-3.86.4-3.18.6-7.22-.1-10-.44-1.8-2.23-2.7-4.08-2.83z" fill="#EB5050"/><path d="M65 97.15v-7.3a.5.5 0 01.75-.43l6.48 3.64a.5.5 0 010 .88l-6.48 3.64a.5.5 0 01-.75-.43z" fill="#fff"/><path d="M94.2 97.62c-1.6-.68-1.6-8.15 0-11.55 1.6-3.4 56.1-3.4 58.5-2.71 2.4.67 2.89 9.5 1.6 12.22-1.27 2.72-58.5 2.72-60.1 2.04z" fill="#A9A9A9"/><path d="M288.63 272.3c-8.94-16.49-7.9-89.34 7.9-99.43 15.82-10.1 150.69-5.98 161.98 3.36 11.29 9.35 10.77 99.81-1.27 103.55-12.04 3.74-160.7 7.1-168.6-7.48z" fill="#fff" stroke="#000" stroke-width="2"/><path d="M323 315.5c0 10.14-8.47 17.5-18.5 17.5-4.42 0-9.06-2.34-12.62-5.78-3.57-3.45-5.88-7.83-5.88-11.72 0-11.38 8.98-18.5 18.5-18.5 6.52 0 11.1 2.1 14.07 5.38 2.98 3.3 4.43 7.91 4.43 13.12z" stroke="#000" stroke-width="2"/><path d="M430 302c-10.3-1.47-91-2.5-92.5-2s-1 12.5 0 13 75.5 2 95.5 2c2 0 .5-12.5-3-13zM337.5 329c-1.5-.5-1-8 0-8s78.5 1 79.5.5 1.5 11 0 9.5-78-1.5-79.5-2z" fill="#D3D3D3"/><path d="M336.65 348h5.7v-1.38H339v-.06l1.17-1.14c1.64-1.5 2.09-2.25 2.09-3.16 0-1.39-1.14-2.37-2.85-2.37-1.68 0-2.83 1-2.83 2.57h1.6c0-.76.49-1.23 1.22-1.23.7 0 1.22.44 1.22 1.14 0 .64-.39 1.07-1.11 1.77l-2.85 2.64V348zm9.88.1c1.8 0 3.09-.98 3.08-2.35 0-1-.63-1.7-1.8-1.85v-.06c.9-.16 1.5-.8 1.5-1.7 0-1.26-1.1-2.25-2.75-2.25-1.64 0-2.88.96-2.9 2.34h1.62c.02-.6.58-1 1.27-1 .68 0 1.14.41 1.14 1.02 0 .63-.54 1.05-1.3 1.05h-.75v1.24h.75c.9 0 1.47.46 1.46 1.1 0 .64-.54 1.07-1.31 1.07-.75 0-1.3-.39-1.34-.97h-1.7c.03 1.4 1.28 2.37 3.03 2.37zm7.22 0c1.78 0 3-1.15 2.99-2.77 0-1.53-1.07-2.63-2.51-2.63-.7 0-1.3.3-1.59.69h-.05l.21-2h3.5V340h-4.9l-.37 4.22 1.5.27c.25-.33.72-.54 1.2-.54.8 0 1.38.59 1.38 1.43 0 .83-.57 1.4-1.36 1.4-.67 0-1.21-.42-1.25-1.04h-1.64c.03 1.38 1.23 2.37 2.89 2.37zm4.21-.1h1.7v-2.27l.83-1.02 2.19 3.29h2.02l-3-4.42 2.97-3.58h-2.03l-2.88 3.53h-.1V340h-1.7v8zm15.7-6h-1.76l-1.25 4.3h-.06l-1.24-4.3h-1.76l2.1 6h1.87l2.1-6zm.85 6h1.66v-6h-1.66v6zm.84-6.77c.5 0 .9-.38.9-.85 0-.46-.4-.84-.9-.84s-.9.38-.9.84c0 .47.4.85.9.85zm4.89 6.89c1.49 0 2.49-.73 2.72-1.84l-1.54-.1c-.17.46-.6.7-1.15.7-.83 0-1.36-.56-1.36-1.45h4.08v-.46c0-2.04-1.23-3.05-2.82-3.05-1.76 0-2.9 1.26-2.9 3.1 0 1.91 1.12 3.1 2.97 3.1zm-1.33-3.73c.03-.68.55-1.23 1.3-1.23.71 0 1.21.52 1.22 1.23h-2.52zm6.31 3.61h1.76l1.03-3.77h.07l1.04 3.77h1.76l1.63-6h-1.68l-.92 4h-.05l-.98-4h-1.65l-.97 4.03h-.06l-.93-4.03h-1.68l1.63 6zm13.17-4.29c-.15-1.1-1.04-1.79-2.56-1.79-1.53 0-2.55.71-2.54 1.87 0 .9.56 1.48 1.73 1.71l1.04.21c.52.1.76.3.77.6 0 .35-.4.6-.98.6-.59 0-.98-.25-1.09-.73l-1.63.08c.15 1.15 1.13 1.86 2.72 1.86 1.55 0 2.67-.8 2.67-1.98 0-.87-.57-1.39-1.73-1.62l-1.09-.22c-.56-.12-.76-.32-.76-.6 0-.36.4-.6.92-.6.58 0 .92.32 1 .7l1.53-.09zM48.91 167.68l6.4-.1-.04-1.66-4.39.08-.03-2.26 4.04-.07-.03-1.64-4.04.06-.04-2.25 4.37-.07-.03-1.65-6.37.11.16 9.45zm9.45-7.25l-2.03.03 2.09 3.51-2.04 3.58 2.03-.03 1.33-2.48 1.44 2.43 2-.04-2.16-3.5 1.99-3.59-2.02.04-1.29 2.5-1.34-2.45zm5.99 9.64l1.96-.03-.06-3.8h.06a2.1 2.1 0 002.03 1.22c1.62-.03 2.85-1.33 2.81-3.7-.04-2.44-1.38-3.63-2.93-3.6a2.09 2.09 0 00-2 1.32h-.08l-.02-1.19-1.94.03.17 9.75zm1.81-6.23c-.02-1.27.5-2.09 1.46-2.1.97-.02 1.5.82 1.53 2.04.02 1.24-.5 2.1-1.46 2.13-.95.01-1.5-.8-1.53-2.07zm8.17-6.06l-1.97.04.17 9.45 1.96-.03-.16-9.46zm4.94 9.51c2.15-.04 3.47-1.53 3.43-3.72-.04-2.2-1.4-3.64-3.55-3.6-2.16.04-3.47 1.53-3.43 3.73.04 2.18 1.4 3.63 3.55 3.6zm-.01-1.52c-1 .02-1.52-.89-1.54-2.12-.02-1.24.47-2.16 1.46-2.18.97-.02 1.5.89 1.52 2.13.02 1.23-.47 2.15-1.44 2.17zm4.78 1.3l1.96-.03-.06-4.01c-.02-.88.6-1.49 1.47-1.5.28 0 .65.03.84.09l-.03-1.75a2.95 2.95 0 00-.62-.06c-.8.02-1.44.5-1.68 1.37h-.08l-.02-1.23-1.9.03.12 7.09zm8.22 0c1.75-.04 2.92-.91 3.18-2.23l-1.83-.09c-.18.54-.69.84-1.34.85-.99.01-1.62-.63-1.64-1.68l4.83-.1-.01-.53c-.04-2.41-1.52-3.58-3.4-3.54-2.08.03-3.4 1.54-3.37 3.72.04 2.25 1.4 3.63 3.58 3.6zm-1.65-4.38a1.5 1.5 0 011.5-1.48 1.4 1.4 0 011.48 1.43l-2.98.05z" fill="#000"/><path d="M492.63 272.3c-8.94-16.49-7.9-89.34 7.9-99.43 15.82-10.1 150.69-5.98 161.98 3.36 11.29 9.35 10.77 99.81-1.27 103.55-12.04 3.74-160.7 7.1-168.6-7.48z" fill="#fff" stroke="#000" stroke-width="2"/><path d="M527 315.5c0 10.14-8.47 17.5-18.5 17.5-4.42 0-9.06-2.34-12.62-5.78-3.57-3.45-5.88-7.83-5.88-11.72 0-11.38 8.98-18.5 18.5-18.5 6.52 0 11.1 2.1 14.07 5.38 2.98 3.3 4.43 7.91 4.43 13.12z" stroke="#000" stroke-width="2"/><path d="M634 302c-10.3-1.47-91-2.5-92.5-2s-1 12.5 0 13 75.5 2 95.5 2c2 0 .5-12.5-3-13zM541.5 329c-1.5-.5-1-8 0-8s78.5 1 79.5.5 1.5 11 0 9.5-78-1.5-79.5-2z" fill="#D3D3D3"/><path d="M543.6 348.1c1.8 0 3.09-.98 3.08-2.35 0-1-.63-1.7-1.8-1.85v-.06c.9-.16 1.51-.8 1.5-1.7.01-1.26-1.1-2.25-2.75-2.25-1.64 0-2.88.96-2.9 2.34h1.62c.02-.6.58-1 1.27-1 .68 0 1.14.41 1.14 1.02 0 .63-.53 1.05-1.3 1.05h-.75v1.24h.75c.9 0 1.47.46 1.47 1.1 0 .64-.55 1.07-1.32 1.07-.75 0-1.3-.39-1.34-.97h-1.7c.03 1.4 1.28 2.37 3.03 2.37zm4.35-8.1v8h1.64v-5.23h.06l2.07 5.2h1.12l2.07-5.18h.07V348h1.64v-8h-2.09l-2.2 5.38h-.1l-2.2-5.38h-2.08zm18.17 2h-1.76l-1.24 4.3h-.07l-1.24-4.3h-1.76l2.1 6h1.87l2.1-6zm.85 6h1.67v-6h-1.67v6zm.84-6.77c.5 0 .9-.38.9-.85 0-.46-.4-.84-.9-.84s-.9.38-.9.84c0 .47.4.85.9.85zm4.9 6.89c1.48 0 2.48-.73 2.71-1.84l-1.54-.1c-.16.46-.6.7-1.15.7-.83 0-1.36-.56-1.36-1.45h4.09v-.46c0-2.04-1.24-3.05-2.82-3.05-1.77 0-2.91 1.26-2.91 3.1 0 1.91 1.13 3.1 2.97 3.1zm-1.34-3.73c.04-.68.56-1.23 1.3-1.23.72 0 1.22.52 1.22 1.23h-2.52zm6.31 3.61h1.76l1.03-3.77h.08l1.03 3.77h1.76l1.63-6h-1.68l-.91 4h-.06l-.98-4h-1.65l-.97 4.03h-.06l-.93-4.03h-1.68l1.63 6zm13.17-4.29c-.15-1.1-1.04-1.79-2.56-1.79-1.53 0-2.54.71-2.54 1.87 0 .9.56 1.48 1.74 1.71l1.03.21c.53.1.77.3.77.6 0 .35-.4.6-.97.6-.6 0-1-.25-1.1-.73l-1.63.08c.16 1.15 1.13 1.86 2.72 1.86 1.56 0 2.67-.8 2.68-1.98 0-.87-.58-1.39-1.74-1.62l-1.09-.22c-.55-.12-.76-.32-.76-.6 0-.36.4-.6.92-.6.58 0 .92.32 1 .7l1.53-.09z" fill="#000"/><path d="M696.63 272.3c-8.93-16.49-7.9-89.34 7.9-99.43 15.82-10.1 150.69-5.98 161.98 3.36 11.29 9.35 10.77 99.81-1.27 103.55-12.04 3.74-160.7 7.1-168.6-7.48z" fill="#fff" stroke="#000" stroke-width="2"/><path d="M731 315.5c0 10.14-8.47 17.5-18.5 17.5-4.42 0-9.05-2.34-12.62-5.78-3.57-3.45-5.88-7.83-5.88-11.72 0-11.38 8.98-18.5 18.5-18.5 6.52 0 11.1 2.1 14.07 5.38 2.98 3.3 4.43 7.91 4.43 13.12z" stroke="#000" stroke-width="2"/><path d="M838 302c-10.3-1.47-91-2.5-92.5-2s-1 12.5 0 13 75.5 2 95.5 2c2 0 .5-12.5-3-13zM745.5 329c-1.5-.5-1-8 0-8s78.5 1 79.5.5 1.5 11 0 9.5-78-1.5-79.5-2z" fill="#D3D3D3"/><path d="M747.57 348.1c1.78 0 3-1.15 2.99-2.77 0-1.53-1.07-2.63-2.5-2.63-.71 0-1.32.3-1.6.69h-.05l.21-2h3.5V340h-4.9l-.37 4.22 1.5.27c.25-.33.72-.54 1.2-.54.8 0 1.38.59 1.38 1.43 0 .83-.57 1.4-1.36 1.4-.67 0-1.22-.42-1.25-1.04h-1.64c.03 1.38 1.23 2.37 2.89 2.37zm4.21-.1h1.7v-2.27l.83-1.02 2.19 3.29h2.02l-3-4.42 2.97-3.58h-2.03l-2.88 3.53h-.1V340h-1.7v8zm15.7-6h-1.76l-1.25 4.3h-.06l-1.25-4.3h-1.75l2.1 6h1.87l2.1-6zm.85 6h1.66v-6h-1.66v6zm.83-6.77c.5 0 .9-.38.9-.85 0-.46-.4-.84-.9-.84-.49 0-.9.38-.9.84 0 .47.41.85.9.85zm4.9 6.89c1.49 0 2.49-.73 2.72-1.84l-1.54-.1c-.17.46-.6.7-1.15.7-.83 0-1.36-.56-1.36-1.45h4.08v-.46c0-2.04-1.23-3.05-2.82-3.05-1.76 0-2.9 1.26-2.9 3.1 0 1.91 1.12 3.1 2.97 3.1zm-1.33-3.73c.03-.68.55-1.23 1.3-1.23.71 0 1.21.52 1.22 1.23h-2.52zm6.31 3.61h1.76l1.03-3.77h.07l1.04 3.77h1.76l1.63-6h-1.68l-.92 4h-.05l-.98-4h-1.66l-.96 4.03h-.06l-.93-4.03h-1.68l1.63 6zm13.17-4.29c-.15-1.1-1.04-1.79-2.56-1.79-1.53 0-2.55.71-2.54 1.87 0 .9.56 1.48 1.73 1.71l1.04.21c.52.1.76.3.77.6 0 .35-.4.6-.98.6-.59 0-.98-.25-1.08-.73l-1.64.08c.15 1.15 1.13 1.86 2.72 1.86 1.56 0 2.67-.8 2.67-1.98 0-.87-.57-1.39-1.73-1.62l-1.09-.22c-.56-.12-.76-.32-.76-.6 0-.36.4-.6.92-.6.58 0 .92.32 1 .7l1.53-.09z" fill="#000"/><path d="M900.63 272.3c-8.93-16.49-7.9-89.34 7.9-99.43 15.82-10.1 150.69-5.98 161.98 3.36 11.29 9.35 10.77 99.81-1.27 103.55-12.04 3.74-160.7 7.1-168.6-7.48z" fill="#fff" stroke="#000" stroke-width="2"/><path d="M935 315.5c0 10.14-8.47 17.5-18.5 17.5-4.42 0-9.05-2.34-12.62-5.78-3.57-3.45-5.88-7.83-5.88-11.72 0-11.38 8.98-18.5 18.5-18.5 6.52 0 11.1 2.1 14.07 5.38 2.98 3.3 4.43 7.91 4.43 13.12z" stroke="#000" stroke-width="2"/><path d="M1042 302c-10.3-1.47-91-2.5-92.5-2s-1 12.5 0 13 75.5 2 95.5 2c2 0 .5-12.5-3-13zM949.5 329c-1.5-.5-1-8 0-8s78.5 1 79.5.5 1.5 11 0 9.5-78-1.5-79.5-2z" fill="#D3D3D3"/><path d="M951.72 348.1c1.78.02 3-1.15 3-2.78 0-1.5-1.05-2.58-2.47-2.58a2.2 2.2 0 00-2.02 1.13h-.05c0-1.56.55-2.53 1.6-2.53.61 0 1.05.34 1.18.9h1.67c-.16-1.32-1.25-2.35-2.85-2.35-1.98 0-3.25 1.6-3.26 4.29 0 2.93 1.55 3.92 3.2 3.93zm0-1.32c-.79 0-1.37-.63-1.37-1.4 0-.79.6-1.42 1.37-1.42.78 0 1.35.61 1.35 1.4 0 .8-.58 1.42-1.36 1.42zm7.33 1.4c2 0 3.22-1.54 3.23-4.17 0-2.62-1.23-4.12-3.23-4.12-2.01 0-3.23 1.5-3.23 4.12-.01 2.63 1.21 4.16 3.23 4.17zm0-1.4c-.92 0-1.51-.93-1.51-2.77 0-1.82.6-2.73 1.5-2.73.92 0 1.51.91 1.51 2.73 0 1.84-.59 2.76-1.5 2.76zm4.48 1.22h1.7v-2.27l.82-1.02 2.2 3.29h2.02l-3-4.42 2.96-3.58h-2.02l-2.88 3.53h-.1V340h-1.7v8zm15.7-6h-1.77l-1.24 4.3h-.06l-1.25-4.3h-1.76l2.1 6h1.88l2.1-6zm.84 6h1.67v-6h-1.67v6zm.84-6.77c.5 0 .9-.38.9-.85 0-.46-.4-.84-.9-.84s-.9.38-.9.84c0 .47.4.85.9.85zm4.9 6.89c1.48 0 2.48-.73 2.71-1.84l-1.53-.1c-.17.46-.6.7-1.16.7-.83 0-1.36-.56-1.36-1.45h4.09v-.46c0-2.04-1.23-3.05-2.82-3.05-1.77 0-2.91 1.26-2.91 3.1 0 1.91 1.13 3.1 2.98 3.1zm-1.34-3.73c.04-.68.56-1.23 1.3-1.23.72 0 1.22.52 1.22 1.23h-2.52zm6.32 3.61h1.75l1.04-3.77h.07l1.03 3.77h1.76l1.63-6h-1.68l-.91 4h-.05l-.99-4h-1.65l-.97 4.03h-.05l-.93-4.03h-1.69l1.64 6zm13.16-4.29c-.15-1.1-1.04-1.79-2.55-1.79-1.54 0-2.55.71-2.55 1.87 0 .9.57 1.48 1.74 1.71l1.04.21c.52.1.76.3.77.6-.01.35-.4.6-.98.6-.59 0-.99-.25-1.09-.73l-1.64.08c.16 1.15 1.14 1.86 2.73 1.86 1.55 0 2.66-.8 2.67-1.98-.01-.87-.57-1.39-1.74-1.62l-1.08-.22c-.56-.12-.77-.32-.76-.6-.01-.36.4-.6.91-.6.58 0 .93.32 1.01.7l1.52-.09z" fill="#000"/><path d="M49.86 147.4c-1.94-1.33 0-12.03 0-12.03 2.07-2.67 51-3.34 52.3-.67 1.28 2.68 1.28 12.7-1.3 12.7s-49.06 1.34-51 0zM45.21 190.44c-2.72-1.24 0-11.23 0-11.23 2.9-2.5 71.78-3.12 73.6-.62 1.81 2.5 1.81 11.85-1.82 11.85s-69.05 1.25-71.78 0zM42.51 242.44c-3.4-1.24 0-11.23 0-11.23 3.64-2.5 89.73-3.12 92-.62 2.27 2.5 2.27 11.85-2.27 11.85-4.55 0-86.32 1.25-89.73 0zM41.39 370.44c-3.12-1.24 0-11.23 0-11.23 3.33-2.5 82.16-3.12 84.24-.62 2.08 2.5 2.08 11.86-2.08 11.86s-79.04 1.24-82.16 0zM40.26 266.44c-2.83-1.24 0-11.23 0-11.23 3.02-2.5 74.61-3.12 76.5-.62 1.89 2.5 1.89 11.85-1.89 11.85s-71.78 1.25-74.61 0zM41.51 394.44c-3.4-1.24 0-11.23 0-11.23 3.64-2.5 89.73-3.12 92-.62 2.27 2.5 2.27 11.86-2.27 11.86-4.55 0-86.32 1.24-89.73 0zM40.39 291.44c-3.12-1.24 0-11.23 0-11.23 3.33-2.5 82.16-3.12 84.24-.62 2.08 2.5 2.08 11.86-2.08 11.86s-79.04 1.24-82.16 0zM41.43 419.44c-3.22-1.24 0-11.23 0-11.23 3.45-2.5 85-3.12 87.16-.62 2.15 2.5 2.15 11.86-2.16 11.86-4.3 0-81.77 1.24-85 0zM39.67 315.49c-3.76-1.16 0-10.44 0-10.44 4.02-2.31 99.17-2.9 101.68-.57 2.51 2.31 2.51 11-2.51 11s-95.4 1.16-99.17 0zM43.34 443.49c-3.01-1.16 0-10.44 0-10.44 3.21-2.31 79.33-2.9 81.34-.57 2 2.31 2 11-2 11-4.03 0-76.33 1.16-79.34 0z" fill="#D3D3D3"/></svg>