<svg fill="none" xmlns="http://www.w3.org/2000/svg" viewBox="0 0 1194 716"><path d="M423.64 313.28h5.7v-1.38H426v-.05l1.17-1.15c1.64-1.5 2.08-2.25 2.08-3.16 0-1.39-1.13-2.37-2.85-2.37-1.67 0-2.83 1-2.82 2.58h1.6c0-.77.48-1.24 1.21-1.24.7 0 1.23.44 1.23 1.14 0 .64-.4 1.08-1.12 1.78l-2.85 2.63v1.22Zm10.07.18c2.01 0 3.23-1.53 3.23-4.17 0-2.62-1.23-4.12-3.23-4.12s-3.23 1.5-3.23 4.12c0 2.63 1.21 4.17 3.23 4.17Zm0-1.4c-.92 0-1.51-.93-1.5-2.77 0-1.81.59-2.73 1.5-2.73s1.5.92 1.5 2.73c0 1.84-.58 2.77-1.5 2.77Zm4.45 1.22h1.67v-1.9l.45-.51 1.63 2.41h1.95l-2.34-3.4 2.23-2.6h-1.91l-1.92 2.28h-.1v-4.28h-1.66v8ZM431.6 457.4c1.8 0 3.08-1 3.08-2.36 0-1-.63-1.7-1.8-1.86v-.06c.89-.16 1.5-.8 1.5-1.7 0-1.25-1.1-2.25-2.75-2.25-1.64 0-2.88.96-2.9 2.35h1.62c.02-.61.58-1 1.27-1 .68 0 1.14.4 1.13 1.01 0 .63-.53 1.05-1.3 1.05h-.74v1.25h.74c.91 0 1.48.45 1.47 1.1 0 .63-.54 1.07-1.31 1.07-.75 0-1.3-.4-1.34-.98h-1.7c.02 1.4 1.27 2.37 3.03 2.37ZM434.13 626.28h-1.6l-1.97 1.26v1.5l1.83-1.15h.04v6.4h1.7v-8ZM518.13 305.28h-1.6l-1.98 1.26v1.5l1.84-1.15h.04v6.4h1.7v-8Zm5.03 8.18c2.02 0 3.23-1.53 3.23-4.17 0-2.62-1.22-4.12-3.23-4.12-2 0-3.22 1.5-3.23 4.12 0 2.63 1.22 4.17 3.23 4.17Zm0-1.4c-.91 0-1.5-.93-1.5-2.77 0-1.81.59-2.73 1.5-2.73s1.5.92 1.5 2.73c.01 1.84-.58 2.77-1.5 2.77Zm4.46 1.22h1.66v-1.9l.45-.51 1.64 2.41h1.95l-2.35-3.4 2.23-2.6h-1.9l-1.93 2.28h-.09v-4.28h-1.66v8ZM518.64 457.28h5.7v-1.38H521v-.05l1.17-1.15c1.64-1.5 2.08-2.25 2.08-3.16 0-1.39-1.13-2.37-2.85-2.37-1.67 0-2.83 1-2.82 2.58h1.6c0-.77.48-1.24 1.21-1.24.7 0 1.23.44 1.23 1.14 0 .64-.4 1.08-1.12 1.78l-2.85 2.63v1.22Zm9.9.11c1.79 0 3.07-.99 3.07-2.35 0-1-.63-1.7-1.8-1.86v-.06c.89-.16 1.5-.8 1.5-1.7 0-1.25-1.1-2.25-2.76-2.25-1.64 0-2.87.96-2.9 2.35h1.63c.02-.61.58-1 1.27-1 .68 0 1.14.4 1.13 1.01 0 .63-.53 1.05-1.3 1.05h-.74v1.25h.74c.9 0 1.48.45 1.47 1.1 0 .63-.54 1.07-1.32 1.07-.74 0-1.3-.4-1.33-.98h-1.7c.02 1.4 1.27 2.37 3.03 2.37ZM525.13 626.28h-1.6l-1.98 1.26v1.5l1.84-1.15h.04v6.4h1.7v-8ZM605.13 305.28h-1.6l-1.98 1.26v1.5l1.84-1.15h.04v6.4h1.7v-8Zm5.03 8.18c2.02 0 3.23-1.53 3.23-4.17 0-2.62-1.22-4.12-3.23-4.12-2 0-3.22 1.5-3.23 4.12 0 2.63 1.22 4.17 3.23 4.17Zm0-1.4c-.91 0-1.5-.93-1.5-2.77 0-1.81.59-2.73 1.5-2.73s1.5.92 1.5 2.73c.01 1.84-.58 2.77-1.5 2.77Zm7.58 1.4c2 0 3.22-1.53 3.23-4.17 0-2.62-1.23-4.12-3.23-4.12-2.01 0-3.23 1.5-3.23 4.12-.01 2.63 1.21 4.17 3.23 4.17Zm0-1.4c-.92 0-1.51-.93-1.51-2.77 0-1.81.6-2.73 1.5-2.73.92 0 1.51.92 1.51 2.73 0 1.84-.59 2.77-1.5 2.77Zm4.45 1.22h1.66v-1.9l.45-.51 1.64 2.41h1.95l-2.34-3.4 2.23-2.6h-1.91l-1.93 2.28h-.09v-4.28h-1.66v8ZM605.52 455.88h3.84v1.4h1.62v-1.4h1v-1.36h-1v-5.24h-2.12l-3.34 5.27v1.33Zm3.88-1.36h-2.17v-.06l2.1-3.33h.06v3.4Zm3.7 2.76h5.7v-1.38h-3.36v-.05l1.17-1.15c1.65-1.5 2.09-2.25 2.09-3.16 0-1.39-1.13-2.37-2.85-2.37-1.68 0-2.83 1-2.83 2.58h1.6c0-.77.49-1.24 1.22-1.24.7 0 1.23.44 1.23 1.14 0 .64-.4 1.08-1.12 1.78l-2.85 2.63v1.22ZM608.64 634.28h5.7v-1.38H611v-.05l1.17-1.15c1.64-1.5 2.08-2.25 2.08-3.16 0-1.38-1.13-2.37-2.85-2.37-1.67 0-2.83 1-2.82 2.58h1.6c0-.77.48-1.24 1.21-1.24.7 0 1.23.44 1.23 1.14 0 .64-.4 1.08-1.12 1.78l-2.85 2.64v1.21Z" fill="#000"/></svg>