<svg fill="none" xmlns="http://www.w3.org/2000/svg" viewBox="0 0 1194 716"><path d="M61.75 64.95c2.15-2.44 6.08-4.87 11.82-7.24 5.72-2.35 13.13-4.6 22.14-6.73 18-4.25 42.3-8 71.96-11.17C227 33.46 307.76 29.45 402.64 28.32c189.75-2.25 435.93 7.07 680.05 32.41 25.75 2.68 47.84 19.13 53.89 44.16 17.92 74.12 31.75 205.65 32.62 322.93.43 58.64-2.38 113.67-9.53 156.15-3.58 21.25-8.23 39.31-14.09 53.1-5.86 13.84-12.87 23.21-21.03 27.32-4.58 2.3-12.51 4.47-23.47 6.46-10.93 1.99-24.78 3.8-41.14 5.42-32.71 3.26-75.4 5.81-124.72 7.73-98.62 3.82-223.66 5.09-348.22 4.35-124.55-.74-248.6-3.48-345.23-7.68-48.3-2.1-89.76-4.55-120.98-7.3a666.48 666.48 0 0 1-38.72-4.34c-10.1-1.52-17.09-3.09-20.67-4.66-3.44-1.51-6.7-4.92-9.76-10.18-3.05-5.25-5.82-12.24-8.33-20.77-5-17.04-8.89-40.06-11.76-67.15-5.76-54.15-7.46-124.38-6.12-195.16 1.35-70.78 5.74-142.07 12.16-198.35 3.21-28.14 6.93-52.5 11.03-71.17 2.05-9.33 4.2-17.21 6.4-23.42 2.22-6.24 4.48-10.69 6.73-13.22Z" stroke="#000" stroke-width="2"/><path d="M49 99.28c248.5-34.5 610.4-31.1 1090 18.5M96 73.78a8.5 8.5 0 0 1-17 0c0-2.24 1.17-4.1 2.86-5.43a9.62 9.62 0 0 1 5.64-2.07c2.2 0 4.34 1 5.94 2.49 1.61 1.5 2.56 3.37 2.56 5.01ZM125 69.78a8.5 8.5 0 0 1-17 0c0-2.24 1.17-4.1 2.86-5.43a9.62 9.62 0 0 1 5.64-2.07c2.2 0 4.34 1 5.94 2.49 1.61 1.5 2.56 3.37 2.56 5.01ZM155 65.78a8.5 8.5 0 0 1-17 0c0-2.24 1.16-4.1 2.86-5.43a9.62 9.62 0 0 1 5.64-2.07c2.2 0 4.34 1 5.94 2.49 1.61 1.5 2.56 3.37 2.56 5.01ZM993.79 138.25c-40.3-7.59-123.24-14.06-161.12-14.53-10.2-.12-18.3 8.02-19.19 18.17l-.1 1.17c-.8 9.98 8.89 16.36 18.89 16.9 34.12 1.8 110.78 8.84 156.7 12.56 6.15.5 12.44-1.56 15.98-6.62 6.36-9.11 5.14-16.07-2.57-23.46a16.79 16.79 0 0 0-8.6-4.2Z" stroke="#000" stroke-width="2"/><path d="m844.3 144.28 5.7 7m-9.61-16.94c-4.27-.74-7.98 5.87-5.7 9.58 2.36 3.83 10.27 2.15 11.04-2.21.7-4.06-1.07-6.63-5.34-7.37ZM333.5 80.28c-22.5 149-21.6 414.2 0 601M768 87.28c9.52 149 9.14 414.2 0 601" stroke="#000" stroke-width="2"/><path d="m199.5 117.28 4-3-3 5 6 1-5.5 1c4 18.8-15.34 20.5-25.5 19 0 0 4-1.92 6-6-9.5-5.5-7.5-16.5-7.5-16.5 2.33 3.84 12 6.5 15.5 2.5 4-7 7.66-5.33 10-3Z" fill="#2FA9ED"/><path d="M398 274.04c0-15 0-112.5 14.95-118.5 14.95-6.02 296.44-6.46 303.98 4 7.54 10.47 10 121.46.03 123.4C707 284.9 398 289.99 398 274.05ZM387 120.78c0 10.14-8.48 17.5-18.5 17.5-4.42 0-9.06-2.34-12.62-5.78-3.57-3.45-5.88-7.83-5.88-11.72 0-11.38 8.98-18.5 18.5-18.5 6.52 0 11.1 2.1 14.07 5.39 2.98 3.3 4.43 7.9 4.43 13.11ZM387 362.78c0 10.14-8.48 17.5-18.5 17.5-4.42 0-9.06-2.34-12.62-5.78-3.57-3.45-5.88-7.83-5.88-11.72 0-11.38 8.98-18.5 18.5-18.5 6.52 0 11.1 2.1 14.07 5.39 2.98 3.3 4.43 7.9 4.43 13.11ZM390 515.78c0 10.14-8.48 17.5-18.5 17.5-4.42 0-9.06-2.34-12.62-5.78-3.57-3.45-5.88-7.83-5.88-11.72 0-11.38 8.98-18.5 18.5-18.5 6.52 0 11.1 2.1 14.07 5.39 2.98 3.3 4.43 7.9 4.43 13.11Z" stroke="#000" stroke-width="2"/><mask id="a" style="mask-type:alpha" maskUnits="userSpaceOnUse" x="24" y="27" width="1147" height="663"><path d="M61.75 64.95c2.15-2.44 6.08-4.87 11.82-7.24 5.72-2.35 13.13-4.6 22.14-6.73 18-4.25 42.3-8 71.96-11.17C227 33.46 307.76 29.45 402.64 28.32c189.75-2.25 435.93 7.07 680.05 32.41 25.75 2.68 47.84 19.13 53.89 44.16 17.92 74.12 31.75 205.65 32.62 322.93.43 58.64-2.38 113.67-9.53 156.15-3.58 21.25-8.23 39.31-14.09 53.1-5.86 13.84-12.87 23.21-21.03 27.32-4.58 2.3-12.51 4.47-23.47 6.46-10.93 1.99-24.78 3.8-41.14 5.42-32.71 3.26-75.4 5.81-124.72 7.73-98.62 3.82-223.66 5.09-348.22 4.35-124.55-.74-248.6-3.48-345.23-7.68-48.3-2.1-89.76-4.55-120.98-7.3a666.48 666.48 0 0 1-38.72-4.34c-10.1-1.52-17.09-3.09-20.67-4.66-3.44-1.51-6.7-4.92-9.76-10.18-3.05-5.25-5.82-12.24-8.33-20.77-5-17.04-8.89-40.06-11.76-67.15-5.76-54.15-7.46-124.38-6.12-195.16 1.35-70.78 5.74-142.07 12.16-198.35 3.21-28.14 6.93-52.5 11.03-71.17 2.05-9.33 4.2-17.21 6.4-23.42 2.22-6.24 4.48-10.69 6.73-13.22Z" fill="#C4C4C4" stroke="#000" stroke-width="2"/></mask><g mask="url(#a)"><path d="M402 686.78c0 10.14-8.48 17.5-18.5 17.5-4.42 0-9.06-2.34-12.62-5.78-3.57-3.45-5.88-7.83-5.88-11.72 0-11.38 8.98-18.5 18.5-18.5 6.52 0 11.1 2.1 14.07 5.38 2.98 3.3 4.43 7.92 4.43 13.12Z" stroke="#000" stroke-width="2"/></g><path d="M857 403.78c0 10.14-8.48 17.5-18.5 17.5-4.42 0-9.06-2.34-12.62-5.78-3.57-3.45-5.88-7.83-5.88-11.72 0-11.38 8.98-18.5 18.5-18.5 6.52 0 11.1 2.1 14.07 5.39 2.98 3.3 4.43 7.9 4.43 13.11ZM857 449.78c0 10.14-8.48 17.5-18.5 17.5-4.42 0-9.06-2.34-12.62-5.78-3.57-3.45-5.88-7.83-5.88-11.72 0-11.38 8.98-18.5 18.5-18.5 6.52 0 11.1 2.1 14.07 5.39 2.98 3.3 4.43 7.9 4.43 13.11ZM857 495.78c0 10.14-8.48 17.5-18.5 17.5-4.42 0-9.06-2.34-12.62-5.78-3.57-3.45-5.88-7.83-5.88-11.72 0-11.38 8.98-18.5 18.5-18.5 6.52 0 11.1 2.1 14.07 5.39 2.98 3.3 4.43 7.9 4.43 13.11Z" stroke="#000" stroke-width="2"/><path d="M493.6 105.1c-10.33-1.2-91 .92-92.5 1.45-1.48.54-.66 12.53.35 13 1.01.47 75.5-1 95.5-1.53 2-.05.16-12.51-3.35-12.92ZM401.87 135.54c-1.5-.46-1.2-7.97-.2-8 1-.02 78.49-1.08 79.48-1.6.98-.53 1.79 10.96.25 9.5-1.54-1.46-78.01.56-79.53.1ZM493.6 347.1c-10.33-1.2-91 .91-92.5 1.45-1.48.54-.66 12.53.35 13 1.01.47 75.5-1 95.5-1.53 2-.06.16-12.51-3.35-12.92ZM401.87 377.54c-1.5-.46-1.2-7.97-.2-8 1-.02 78.49-1.08 79.48-1.6.98-.53 1.79 10.96.25 9.5-1.54-1.46-78.01.56-79.53.1ZM496.6 500.1c-10.33-1.2-91 .91-92.5 1.45-1.48.54-.66 12.53.35 13 1.01.47 75.5-1 95.5-1.53 2-.05.16-12.51-3.35-12.92ZM404.87 530.54c-1.5-.46-1.2-7.97-.2-8 1-.02 78.49-1.07 79.48-1.6.98-.53 1.79 10.96.25 9.5-1.54-1.46-78.01.56-79.53.1ZM508.6 671.1c-10.33-1.2-91 .91-92.5 1.45-1.48.54-.66 12.53.35 13 1.01.47 75.5-1 95.5-1.53 2-.05.16-12.51-3.35-12.92ZM961.84 389.86c-10.3-1.47-91-1.5-92.5-1s-1 12.5 0 13 75.5 1 95.5 1c2 0 .5-12.5-3-13ZM869.34 417.86c-1.5-.5-1-8 0-8s78.5 1 79.5.5 1.5 11 0 9.5-78-1.5-79.5-2ZM961.84 435.86c-10.3-1.47-91-1.5-92.5-1s-1 12.5 0 13 75.5 1 95.5 1c2 0 .5-12.5-3-13ZM869.34 463.86c-1.5-.5-1-8 0-8s78.5 1 79.5.5 1.5 11 0 9.5-78-1.5-79.5-2ZM961.84 481.86c-10.3-1.47-91-1.5-92.5-1s-1 12.5 0 13 75.5 1 95.5 1c2 0 .5-12.5-3-13ZM869.34 509.86c-1.5-.5-1-8 0-8s78.5 1 79.5.5 1.5 11 0 9.5-78-1.5-79.5-2ZM509.35 113.18c-.66-1.11-.85-7.4 0-7.9.84-.49 28.45-.01 29.3.5.85.5.65 7.74 0 8.37-.65.63-28.65.13-29.3-.97ZM509.35 355.18c-.66-1.11-.85-7.4 0-7.9.84-.49 28.45-.01 29.3.5.85.5.65 7.74 0 8.37-.65.63-28.65.13-29.3-.97Z" fill="#D3D3D3"/><path d="m172.91 193.97 6.39-.12-.03-1.64-4.39.07-.04-2.25 4.05-.07-.03-1.65-4.05.07-.04-2.25 4.38-.08-.03-1.65-6.37.11.16 9.46Zm9.44-7.26-2.03.03 2.1 3.51-2.05 3.59 2.03-.04 1.34-2.47 1.44 2.42 2-.03-2.17-3.51 2-3.58-2.02.03-1.3 2.5-1.34-2.45Zm6 9.65 1.96-.04-.07-3.8h.06a2.1 2.1 0 0 0 2.04 1.22c1.61-.03 2.85-1.33 2.81-3.7-.04-2.44-1.38-3.62-2.94-3.6a2.09 2.09 0 0 0-1.99 1.32h-.09l-.02-1.19-1.94.04.17 9.75Zm1.81-6.24c-.02-1.27.5-2.08 1.46-2.1.97-.02 1.5.82 1.52 2.05.02 1.24-.49 2.1-1.45 2.12-.95.02-1.5-.8-1.53-2.07Zm8.16-6.05-1.96.03.16 9.46 1.97-.04-.17-9.45Zm4.95 9.5c2.15-.03 3.46-1.53 3.43-3.71-.04-2.2-1.4-3.64-3.56-3.6-2.15.03-3.46 1.52-3.42 3.72.03 2.18 1.4 3.63 3.55 3.6Zm-.02-1.52c-.99.02-1.51-.88-1.53-2.12-.03-1.24.47-2.16 1.46-2.18.97-.01 1.5.9 1.52 2.13.02 1.24-.47 2.16-1.45 2.17Zm4.79 1.3 1.96-.03-.07-4.01c-.01-.87.61-1.49 1.48-1.5.27 0 .65.03.83.1l-.03-1.75a2.95 2.95 0 0 0-.62-.06c-.8.01-1.43.49-1.68 1.37h-.07l-.02-1.24-1.9.03.12 7.1Zm8.22 0c1.75-.03 2.92-.9 3.17-2.23l-1.82-.09c-.19.55-.69.84-1.35.85-.98.02-1.61-.62-1.63-1.68l4.83-.09-.01-.54c-.04-2.4-1.52-3.57-3.4-3.54-2.09.04-3.41 1.54-3.37 3.73.04 2.25 1.4 3.63 3.58 3.59Zm-1.65-4.37a1.5 1.5 0 0 1 1.5-1.48 1.4 1.4 0 0 1 1.47 1.43l-2.97.05ZM821.91 207.3l1.95.08 2.06-6.1h.08l1.52 6.26 1.95.08 3.12-9.33-2.19-.1-1.85 6.52h-.08l-1.43-6.66-1.87-.08-2.01 6.49h-.08l-1.28-6.64-2.18-.1 2.3 9.57Zm13.44-3.53c.04-.9.63-1.42 1.43-1.38.8.03 1.24.56 1.2 1.44l-.18 4.16 1.96.08.2-4.51c.08-1.66-.86-2.7-2.33-2.77-1.08-.05-1.82.43-2.18 1.25h-.08l.16-3.62-1.91-.08-.41 9.44 1.96.09.18-4.1Zm7.97 4.59c1.05.05 1.75-.38 2.12-1.03h.06l-.04.99 1.86.08.2-4.78c.08-1.69-1.32-2.46-2.9-2.53-1.7-.07-2.84.7-3.17 1.97l1.8.23c.16-.47.6-.8 1.3-.76.67.03 1.04.38 1.02.96v.03c-.03.45-.51.5-1.75.56-1.4.07-2.69.48-2.76 2.06-.06 1.4.91 2.16 2.26 2.22Zm.63-1.33c-.6-.03-1.03-.33-1-.87.02-.55.49-.8 1.18-.87a4.7 4.7 0 0 0 1.38-.26l-.03.75c-.03.75-.67 1.29-1.53 1.25Zm8.97-5.48-1.33-.06.07-1.7-1.96-.08-.08 1.7-.97-.05-.06 1.48.97.04-.16 3.69c-.07 1.39.84 2.12 2.27 2.12.5 0 .87-.09 1.08-.14l-.25-1.48c-.1.02-.3.06-.5.05-.38-.02-.65-.18-.63-.72l.15-3.44 1.34.06.06-1.47Zm3.35-2.22-1.48-.07-.04 1a3.3 3.3 0 0 1-.67 1.82l.85.55a3.39 3.39 0 0 0 1.3-2.3l.04-1Zm6.12 4.66c-.12-1.32-1.13-2.17-2.92-2.25-1.82-.08-3.05.7-3.1 2.07-.05 1.06.59 1.78 1.96 2.12l1.21.3c.62.15.89.39.88.74-.03.42-.5.7-1.18.67-.7-.03-1.16-.35-1.25-.93l-1.94.01c.13 1.37 1.24 2.25 3.12 2.34 1.84.08 3.2-.8 3.26-2.2.04-1.02-.6-1.67-1.97-2l-1.27-.32c-.65-.17-.89-.41-.87-.75.02-.43.51-.68 1.12-.66.68.03 1.07.43 1.15.89l1.8-.03Zm6.33 1.24c.04-.91.62-1.42 1.43-1.39.8.04 1.24.57 1.2 1.44l-.18 4.16 1.96.09.2-4.51c.08-1.66-.86-2.71-2.33-2.78-1.08-.04-1.82.43-2.18 1.25h-.08l.16-3.61-1.91-.09-.41 9.45 1.96.09.18-4.1Zm7.97 4.59c1.05.04 1.75-.38 2.12-1.03h.06l-.04.99 1.86.08.2-4.78c.08-1.69-1.32-2.46-2.9-2.53-1.7-.08-2.84.69-3.17 1.97l1.8.22c.16-.46.6-.79 1.3-.76.67.03 1.04.39 1.01.97v.03c-.02.45-.5.49-1.74.56-1.4.06-2.69.48-2.76 2.06-.06 1.4.91 2.16 2.26 2.22Zm.63-1.33c-.6-.03-1.03-.33-1-.87.02-.55.49-.8 1.18-.87a4.7 4.7 0 0 0 1.38-.26l-.03.75c-.03.74-.67 1.28-1.53 1.25Zm4.78 4.09 1.96.09.17-3.8h.06c.24.61.81 1.3 1.95 1.34 1.62.08 2.93-1.15 3.04-3.52.1-2.43-1.16-3.7-2.71-3.77a2.09 2.09 0 0 0-2.08 1.2h-.08l.05-1.2-1.94-.08-.42 9.74Zm2.2-6.11c.05-1.27.62-2.05 1.57-2.01.97.04 1.45.9 1.4 2.14-.05 1.23-.62 2.07-1.58 2.03-.95-.05-1.45-.9-1.4-2.16Zm6.02 6.47 1.96.09.17-3.8h.06c.24.6.8 1.3 1.95 1.34 1.62.08 2.93-1.15 3.03-3.52.11-2.43-1.15-3.7-2.7-3.77a2.09 2.09 0 0 0-2.08 1.2h-.08l.05-1.2-1.94-.08-.42 9.74Zm2.19-6.12c.06-1.26.63-2.04 1.58-2 .97.04 1.45.9 1.4 2.14-.06 1.23-.62 2.07-1.58 2.02-.95-.04-1.45-.9-1.4-2.16Zm9.36 4.1c1.76.08 2.97-.72 3.3-2.03l-1.8-.2c-.23.53-.75.8-1.4.77-.98-.05-1.58-.72-1.53-1.78l4.82.2.03-.53c.1-2.41-1.3-3.67-3.18-3.75-2.08-.09-3.5 1.33-3.6 3.52-.09 2.25 1.18 3.7 3.36 3.8Zm-1.38-4.46a1.5 1.5 0 0 1 1.6-1.39 1.4 1.4 0 0 1 1.38 1.52l-2.98-.13Zm8.07.51c.04-.91.6-1.42 1.4-1.39.79.03 1.24.57 1.2 1.44l-.18 4.16 1.96.09.2-4.52c.07-1.65-.85-2.7-2.33-2.77-1.05-.04-1.83.44-2.19 1.25h-.08l.06-1.25-1.88-.08-.3 7.08 1.96.09.18-4.1Zm5.93 4.36 1.97.09.3-7.08-1.96-.1-.3 7.1Zm1.34-7.95c.58.02 1.08-.4 1.1-.95.03-.55-.43-1.01-1.01-1.04-.59-.02-1.08.4-1.1.95-.03.54.43 1.01 1 1.04Zm4.34 4.1c.05-.91.62-1.43 1.41-1.4.79.04 1.24.58 1.2 1.45l-.18 4.16 1.96.08.2-4.5c.07-1.66-.85-2.72-2.33-2.78-1.05-.05-1.83.44-2.19 1.25h-.08l.05-1.25-1.87-.09-.3 7.09 1.96.08.17-4.1Zm9 7.3c2.03.1 3.51-.77 3.6-2.58l.3-7.15-1.95-.09-.05 1.2-.07-.01a2.1 2.1 0 0 0-1.97-1.37c-1.55-.07-2.92 1.08-3.03 3.5-.1 2.35 1.13 3.5 2.73 3.57 1.13.05 1.78-.49 2.06-1.06h.09l-.06 1.3c-.04.97-.68 1.32-1.53 1.28-.87-.03-1.3-.43-1.43-.87l-1.83.17c.18 1.13 1.24 2.03 3.15 2.11Zm.24-4.38c-.96-.04-1.45-.83-1.4-2.05.05-1.2.6-2.02 1.58-1.98.95.04 1.45.87 1.4 2.11-.06 1.25-.63 1.97-1.58 1.92ZM822.08 374.43h1.95l1.8-6.18h.07l1.8 6.18h1.95l2.7-9.45h-2.18l-1.57 6.58h-.08l-1.72-6.58h-1.87l-1.73 6.57h-.08l-1.56-6.57h-2.19l2.71 9.45Zm13.27-4.1c0-.91.56-1.45 1.37-1.45.8 0 1.27.52 1.26 1.39v4.16h1.97v-4.51c0-1.66-.98-2.67-2.45-2.67-1.08 0-1.8.5-2.12 1.34h-.08v-3.61h-1.92v9.45h1.97v-4.1Zm9.35 4.24c2.15 0 3.49-1.47 3.49-3.65 0-2.2-1.34-3.67-3.49-3.67-2.15 0-3.49 1.47-3.49 3.67 0 2.18 1.34 3.65 3.49 3.65Zm.01-1.52c-1 0-1.5-.91-1.5-2.15 0-1.24.5-2.15 1.5-2.15.97 0 1.48.91 1.48 2.15 0 1.24-.5 2.15-1.48 2.15Zm11.54-5.7h-1.33v-1.7h-1.97v1.7h-.97v1.47h.97v3.7c-.01 1.38.94 2.07 2.36 2.01.51-.02.87-.12 1.07-.18l-.31-1.47c-.1.02-.3.07-.49.07-.4 0-.66-.15-.66-.7v-3.43h1.33v-1.48Zm4.4 7.22c2.16 0 3.5-1.47 3.5-3.65 0-2.2-1.34-3.67-3.5-3.67-2.14 0-3.48 1.47-3.48 3.67 0 2.18 1.34 3.65 3.49 3.65Zm.02-1.52c-1 0-1.5-.91-1.5-2.15 0-1.24.5-2.15 1.5-2.15.97 0 1.48.91 1.48 2.15 0 1.24-.5 2.15-1.48 2.15Zm11.58-5.7h-1.4v-.48c0-.48.18-.76.76-.76.24 0 .48.04.63.1l.35-1.48c-.24-.08-.78-.2-1.39-.2-1.33 0-2.33.76-2.33 2.3v.51h-1v1.48h1v5.61h1.97v-5.61h1.4v-1.48Zm4.15 7.22c2.15 0 3.5-1.47 3.5-3.65 0-2.2-1.35-3.67-3.5-3.67s-3.49 1.47-3.49 3.67c0 2.18 1.34 3.65 3.5 3.65Zm.01-1.52c-1 0-1.5-.91-1.5-2.15 0-1.24.5-2.15 1.5-2.15.97 0 1.48.91 1.48 2.15 0 1.24-.5 2.15-1.48 2.15Zm6.73-8.07h-1.97v9.45h1.97v-9.45Zm3.54 0h-1.97v9.45h1.97v-9.45Zm4.78 9.6c2.15 0 3.49-1.48 3.49-3.66 0-2.2-1.34-3.67-3.5-3.67-2.14 0-3.48 1.47-3.48 3.67 0 2.18 1.34 3.65 3.49 3.65Zm0-1.53c-.99 0-1.5-.91-1.5-2.15 0-1.24.51-2.15 1.5-2.15.98 0 1.49.91 1.49 2.15 0 1.24-.5 2.15-1.48 2.15Zm5.99 1.38h2.07l1.22-4.46h.1l1.21 4.46h2.08l1.93-7.09h-1.99l-1.08 4.74h-.06l-1.16-4.74h-1.95l-1.15 4.77h-.06l-1.1-4.77h-2l1.94 7.1ZM819.6 551.06h2.9l-.04 7.82h1.98l.03-7.8 2.9.01v-1.65l-7.76-.03v1.65Zm11.15 8c2.15 0 3.5-1.46 3.5-3.65.02-2.2-1.32-3.67-3.47-3.68-2.15 0-3.5 1.45-3.5 3.65-.01 2.18 1.32 3.66 3.47 3.67Zm.02-1.53c-1 0-1.5-.92-1.5-2.15.01-1.24.52-2.15 1.52-2.15.97 0 1.47.92 1.47 2.16 0 1.24-.52 2.14-1.5 2.14Zm4.74 4.07h1.96l.02-3.79h.06c.27.6.86 1.26 2 1.26 1.62 0 2.89-1.26 2.9-3.64.01-2.43-1.3-3.65-2.85-3.66a2.1 2.1 0 0 0-2.03 1.28h-.09l.01-1.2h-1.94l-.04 9.75Zm1.95-6.2c0-1.26.54-2.07 1.5-2.07.97 0 1.49.86 1.48 2.08 0 1.24-.53 2.1-1.5 2.1-.95-.01-1.49-.85-1.48-2.11Zm6.28 3.58h1.97l.03-7.09h-1.96l-.03 7.09Zm1.03-8c.59 0 1.07-.45 1.07-1 0-.54-.47-1-1.06-1-.58 0-1.06.45-1.07 1 0 .54.48 1 1.06 1Zm5.72 8.16c1.89.01 3.08-1.09 3.18-2.72h-1.86c-.11.75-.61 1.17-1.29 1.17-.92 0-1.51-.78-1.5-2.14 0-1.34.6-2.1 1.52-2.1.72 0 1.18.49 1.28 1.2h1.86c-.08-1.64-1.31-2.72-3.16-2.73-2.16 0-3.5 1.48-3.5 3.65-.01 2.16 1.29 3.66 3.47 3.67Zm10.35-5.15c-.17-1.31-1.22-2.12-3-2.13-1.82-.01-3.02.82-3.02 2.19-.01 1.06.65 1.75 2.04 2.04l1.22.25c.62.12.9.35.9.7 0 .43-.46.73-1.15.72-.7 0-1.17-.3-1.28-.88l-1.94.1c.18 1.35 1.33 2.19 3.21 2.2 1.84 0 3.16-.92 3.17-2.32 0-1.03-.67-1.64-2.04-1.93l-1.28-.27c-.66-.14-.9-.37-.9-.71 0-.43.48-.7 1.09-.7.68 0 1.09.38 1.18.84l1.8-.1Zm8.19-1.99h-1.33v-1.7l-1.96-.01-.01 1.7h-.97v1.47h.96l-.01 3.7c-.02 1.39.92 2.08 2.35 2.02.5-.01.87-.11 1.07-.17l-.3-1.47c-.1.02-.31.06-.5.06-.39 0-.66-.15-.66-.7l.02-3.43h1.33l.01-1.47Zm4.38 7.25c2.15.01 3.5-1.46 3.5-3.64.01-2.2-1.32-3.67-3.47-3.68-2.15-.01-3.5 1.45-3.5 3.65-.02 2.18 1.31 3.66 3.46 3.67Zm.01-1.52c-1 0-1.5-.92-1.49-2.15 0-1.24.52-2.15 1.51-2.15.97 0 1.48.92 1.47 2.16 0 1.24-.51 2.14-1.49 2.14Zm11.6-5.65-1.4-.01v-.48c0-.48.2-.76.78-.75.23 0 .47.05.63.1l.35-1.48c-.24-.07-.78-.2-1.38-.2-1.34 0-2.34.75-2.34 2.29v.51h-1l-.01 1.47h1l-.03 5.62 1.97.01.02-5.61h1.41v-1.47Zm4.13 7.25c2.15 0 3.5-1.46 3.5-3.65.01-2.2-1.32-3.67-3.47-3.68-2.15 0-3.5 1.46-3.5 3.65-.02 2.19 1.32 3.67 3.47 3.68Zm.01-1.53c-.99 0-1.5-.91-1.49-2.15 0-1.24.52-2.15 1.51-2.15.98 0 1.48.92 1.48 2.16-.01 1.24-.52 2.15-1.5 2.14Zm6.77-8.04h-1.97l-.04 9.45h1.96l.05-9.45Zm3.54.02h-1.97l-.04 9.45h1.96l.05-9.45Zm4.73 9.62c2.15 0 3.5-1.46 3.51-3.64.01-2.2-1.32-3.68-3.47-3.69-2.15 0-3.5 1.45-3.51 3.65-.01 2.19 1.32 3.66 3.47 3.67Zm.02-1.53c-1 0-1.5-.91-1.5-2.15.01-1.24.53-2.15 1.52-2.15.97 0 1.48.92 1.47 2.16 0 1.24-.52 2.15-1.49 2.14Zm5.97 1.41 2.08.01 1.24-4.45h.09l1.2 4.47h2.08l1.96-7.08h-1.99l-1.1 4.73h-.06l-1.14-4.75h-1.95l-1.17 4.75h-.07l-1.07-4.77h-2l1.9 7.1Z" fill="#000"/><path d="M173.86 173.69c-1.94-1.34 0-12.03 0-12.03 2.06-2.68 51-3.35 52.29-.67 1.29 2.67 1.29 12.7-1.3 12.7-2.57 0-49.06 1.34-51 0ZM169.2 216.73c-2.72-1.25 0-11.23 0-11.23 2.92-2.5 71.79-3.12 73.6-.63 1.82 2.5 1.82 11.86-1.81 11.86-3.64 0-69.06 1.25-71.78 0ZM166.15 243.73c-2.59-1.25 0-11.23 0-11.23 2.75-2.5 68-3.12 69.72-.63 1.72 2.5 1.72 11.86-1.73 11.86-3.44 0-65.41 1.25-68 0ZM164.38 267.73c-3.12-1.25 0-11.23 0-11.23 3.33-2.5 82.17-3.12 84.25-.63 2.08 2.5 2.08 11.86-2.08 11.86s-79.05 1.25-82.17 0ZM164.38 292.73c-3.12-1.25 0-11.23 0-11.23 3.33-2.5 82.17-3.12 84.25-.63 2.08 2.5 2.08 11.86-2.08 11.86s-79.05 1.25-82.17 0ZM163.24 316.77c-2.8-1.16 0-10.43 0-10.43 2.98-2.32 73.67-2.9 75.53-.58 1.87 2.32 1.87 11-1.86 11-3.73 0-70.87 1.17-73.67 0Z" fill="#D3D3D3"/><path d="M163.67 356.41c-3.76-1.96 0-17.65 0-17.65 4.02-3.92 99.17-4.9 101.68-.98 2.5 3.92 2.5 18.63-2.51 18.63-5.02 0-95.4 1.96-99.17 0Z" fill="#2FA9ED"/><path d="M823 251.28c-4.8 0-2-18.66 0-28 3.6-5.6 184 5 189 7s10.4 28 0 28c-13 0-183-7-189-7ZM823 596.7c-4.8 0-2-18.66 0-28 30 0 180.5-3 189-3s10.19 25.92 0 28c-17.5 3.58-183 3-189 3ZM823 634.28c-4.8 0-2-18.66 0-28 30 0 180.5-3 189-3s10.19 25.92 0 28c-17.5 3.58-183 3-189 3ZM823 671.86c-4.8 0-2-18.67 0-28 30 0 180.5-3 189-3s10.19 25.92 0 28c-17.5 3.58-183 3-189 3ZM823 289.7c-4.8 0-2-18.66 0-28 3.6-5.6 184 5 189 7s10.4 28 0 28c-13 0-183-7-189-7ZM823 328.7c-4.8 0-2-18.66 0-28 3.6-5.6 184 5 189 7s10.4 28 0 28c-13 0-183-7-189-7Z" fill="#D3D3D3"/><g clip-path="url(#b)"><path d="M399.36 317.57s2.95-.52 4.97-1.72c9.1 2.18 14.67-10.07 6.76-14.9-9.1-4.17-16.22 4.93-10.6 11.83l-1.13 4.8Z" stroke="#000" stroke-width="2" stroke-linecap="round" stroke-linejoin="round"/></g><g clip-path="url(#c)"><path d="M403.36 461.57s2.95-.52 4.97-1.72c9.1 2.18 14.67-10.07 6.76-14.9-9.1-4.17-16.22 4.93-10.6 11.83l-1.13 4.8Z" stroke="#000" stroke-width="2" stroke-linecap="round" stroke-linejoin="round"/></g><g clip-path="url(#d)"><path d="M406.36 638.57s2.95-.52 4.97-1.72c9.1 2.18 14.67-10.07 6.76-14.9-9.1-4.17-16.22 4.93-10.6 11.83l-1.13 4.8Z" stroke="#000" stroke-width="2" stroke-linecap="round" stroke-linejoin="round"/></g><path d="M590.1 303.5c-2.63-2.62-5.9-1.23-8.1.98-1.5-1.7-5.88-4.2-9.1-.97-5.08 5.07 5.92 12.06 9.1 15.23 3.12-3.12 13.14-10.2 8.1-15.23ZM590.1 446.85c-2.63-2.64-5.9-1.24-8.1.97-1.5-1.7-5.88-4.2-9.1-.97-5.08 5.07 5.92 12.05 9.1 15.23 3.12-3.13 13.14-10.2 8.1-15.23ZM593.1 623.85c-2.63-2.63-5.9-1.24-8.1.97-1.5-1.7-5.88-4.2-9.1-.97-5.08 5.07 5.92 12.05 9.1 15.23 3.12-3.13 13.14-10.2 8.1-15.23Z" stroke="#000" stroke-width="2" stroke-linecap="round" stroke-linejoin="round"/><g clip-path="url(#e)" stroke="#000" stroke-width="2" stroke-linecap="round" stroke-linejoin="round"><path d="m484.91 304.7 3.67-3.67 3.67 3.67"/><path d="M494.08 317.53c-2.48 0-5.5-.42-5.5-3.66v-12.84M505.08 313.87l-3.67 3.66-3.66-3.66"/><path d="M495.91 301.03c2.49 0 5.5.43 5.5 3.67v12.83"/></g><g clip-path="url(#f)" stroke="#000" stroke-width="2" stroke-linecap="round" stroke-linejoin="round"><path d="m488.91 448.7 3.67-3.67 3.67 3.67"/><path d="M498.08 461.53c-2.48 0-5.5-.42-5.5-3.66v-12.84M509.08 457.87l-3.67 3.66-3.66-3.66"/><path d="M499.91 445.03c2.49 0 5.5.43 5.5 3.67v12.83"/></g><g clip-path="url(#g)" stroke="#000" stroke-width="2" stroke-linecap="round" stroke-linejoin="round"><path d="m491.91 625.7 3.67-3.67 3.67 3.67"/><path d="M501.08 638.53c-2.48 0-5.5-.42-5.5-3.66v-12.84M512.08 634.87l-3.67 3.66-3.66-3.66"/><path d="M502.91 622.03c2.49 0 5.5.43 5.5 3.67v12.83"/></g><path d="M403.89 404.78c-2-1.3-3-9.52 0-12.12 3-2.6 318.5-.87 321 0 2.5.86 0 9.52 0 12.12 0 2.6-319 1.3-321 0ZM406.89 557.78c-2-1.3-3-9.52 0-12.12 3-2.6 318.5-.87 321 0 2.5.86 0 9.52 0 12.12 0 2.6-319 1.3-321 0ZM404.05 426.78c-1.11-1.3-1.67-9.52 0-12.12 1.68-2.6 177.93-.87 179.33 0 1.4.86 0 9.52 0 12.12 0 2.6-178.21 1.3-179.33 0ZM407.88 579.78c-1.99-1.3-2.99-9.52 0-12.12 2.99-2.6 317.52-.87 320.01 0 2.49.86 0 9.52 0 12.12 0 2.6-318.02 1.3-320 0ZM407.6 604.78c-1.7-1.3-2.54-9.52 0-12.12 2.56-2.6 271.33-.87 273.45 0 2.13.86 0 9.52 0 12.12 0 2.6-271.74 1.3-273.44 0Z" fill="#D3D3D3"/><defs><clipPath id="b"><path fill="#fff" transform="translate(394 296.28)" d="M0 0h24v24H0z"/></clipPath><clipPath id="c"><path fill="#fff" transform="translate(398 440.28)" d="M0 0h24v24H0z"/></clipPath><clipPath id="d"><path fill="#fff" transform="translate(401 617.28)" d="M0 0h24v24H0z"/></clipPath><clipPath id="e"><path fill="#fff" transform="rotate(-90 402.14 -81.86)" d="M0 0h22v22H0z"/></clipPath><clipPath id="f"><path fill="#fff" transform="rotate(-90 476.14 -11.86)" d="M0 0h22v22H0z"/></clipPath><clipPath id="g"><path fill="#fff" transform="rotate(-90 566.14 75.14)" d="M0 0h22v22H0z"/></clipPath></defs></svg>